<?xml version="1.0" encoding="iso-8859-1"?>
<!-- Generator: Adobe Illustrator 18.0.0, SVG Export Plug-In . SVG Version: 6.00 Build 0)  -->
<!DOCTYPE svg PUBLIC "-//W3C//DTD SVG 1.1//EN" "http://www.w3.org/Graphics/SVG/1.1/DTD/svg11.dtd">
<svg version="1.1" id="Capa_1" xmlns="http://www.w3.org/2000/svg" xmlns:xlink="http://www.w3.org/1999/xlink" x="0px" y="0px"
	 viewBox="0 0 367.378 367.378" style="enable-background:new 0 0 367.378 367.378;" xml:space="preserve">
<g>
	<g>
		<g>
			<path style="fill:#CE593F;" d="M158.556,150.409c0.085,0.176,0.162,0.355,0.229,0.539
				C158.718,150.763,158.642,150.585,158.556,150.409z"/>
			<path style="fill:#CE593F;" d="M157.677,149.096c-0.119-0.134-0.236-0.266-0.366-0.388
				C157.441,148.83,157.559,148.963,157.677,149.096z"/>
			<path style="fill:#CE593F;" d="M158.011,149.5c0.11,0.15,0.211,0.308,0.307,0.469C158.221,149.807,158.122,149.651,158.011,149.5
				z"/>
			<path style="fill:#CE593F;" d="M158.931,151.416c0.053,0.195,0.1,0.392,0.133,0.594
				C159.031,151.807,158.984,151.612,158.931,151.416z"/>
			<path style="fill:#CE593F;" d="M155.527,147.556c0.143,0.058,0.274,0.135,0.41,0.204
				C155.8,147.691,155.669,147.614,155.527,147.556z"/>
			<path style="fill:#CE593F;" d="M159.409,152.188c-0.235-0.03-1.012-0.051-1.255-0.051c-3.201,0-6.343,2.603-6.343,5.802v10.332
				c0,0.469-2.669,0.97-4.309,1.517c3.717-1.237,7.309-2.285,12.309-3.103v-13.757C159.812,152.675,159.441,152.433,159.409,152.188
				z"/>
			<path style="fill:#CE593F;" d="M154.478,147.239c0.126,0.025,0.243,0.072,0.366,0.105
				C154.721,147.311,154.604,147.264,154.478,147.239z"/>
			<path style="fill:#CE593F;" d="M156.477,148.054c0.141,0.091,0.27,0.196,0.402,0.298
				C156.747,148.249,156.618,148.144,156.477,148.054z"/>
		</g>
		<g>
			<path style="fill:#CE593F;" d="M219.225,150.401c0.088,0.181,0.167,0.365,0.236,0.555
				C219.391,150.766,219.313,150.582,219.225,150.401z"/>
			<path style="fill:#CE593F;" d="M218.679,149.496c0.114,0.154,0.217,0.315,0.315,0.481
				C218.895,149.81,218.793,149.65,218.679,149.496z"/>
			<path style="fill:#CE593F;" d="M219.6,151.405c0.055,0.201,0.103,0.404,0.136,0.613
				C219.703,151.809,219.655,151.607,219.6,151.405z"/>
			<path style="fill:#CE593F;" d="M218.353,149.101c-0.12-0.136-0.24-0.271-0.372-0.395
				C218.113,148.831,218.233,148.965,218.353,149.101z"/>
			<path style="fill:#CE593F;" d="M215.15,147.239c0.126,0.025,0.243,0.072,0.366,0.105
				C215.393,147.311,215.276,147.264,215.15,147.239z"/>
			<path style="fill:#CE593F;" d="M218.886,152.137c-3.2,0-5.075,2.603-5.075,5.802v10.831c3,0.579,4.547,1.169,7.141,1.883
				l-0.608-17.85C219.84,152.25,219.13,152.137,218.886,152.137z"/>
			<path style="fill:#CE593F;" d="M217.148,148.053c0.142,0.092,0.273,0.198,0.406,0.301
				C217.42,148.251,217.29,148.144,217.148,148.053z"/>
			<path style="fill:#CE593F;" d="M216.198,147.556c0.143,0.058,0.275,0.135,0.413,0.205
				C216.473,147.692,216.342,147.615,216.198,147.556z"/>
		</g>
		<g>
			<path style="fill:#EF8829;" d="M87.771,138.486c-0.818-1.458-1.611-2.946-2.377-4.463
				C86.159,135.54,86.953,137.027,87.771,138.486z"/>
			<path style="fill:#EF8829;" d="M84.96,133.14c-0.72-1.46-1.417-2.943-2.08-4.455C83.543,130.198,84.24,131.68,84.96,133.14z"/>
			<path style="fill:#EF8829;" d="M90.766,143.54c-0.851-1.358-1.678-2.752-2.489-4.169
				C89.088,140.788,89.915,142.182,90.766,143.54z"/>
			<path style="fill:#EF8829;" d="M93.653,147.932c-0.927-1.352-1.844-2.728-2.737-4.146
				C91.81,145.204,92.726,146.579,93.653,147.932z"/>
			<path style="fill:#EF8829;" d="M76.915,110.543c-0.395-1.783-0.733-3.595-1.023-5.43C76.182,106.948,76.52,108.76,76.915,110.543
				z"/>
			<path style="fill:#EF8829;" d="M75.721,103.951c-0.276-1.906-0.513-3.83-0.666-5.789
				C75.207,100.121,75.445,102.045,75.721,103.951z"/>
			<path style="fill:#EF8829;" d="M97.006,152.615c-0.936-1.247-1.861-2.533-2.776-3.846
				C95.145,150.082,96.07,151.367,97.006,152.615z"/>
			<path style="fill:#EF8829;" d="M82.663,128.202c-0.695-1.607-1.344-3.251-1.964-4.917
				C81.319,124.95,81.968,126.594,82.663,128.202z"/>
			<path style="fill:#EF8829;" d="M78.418,116.402c-0.468-1.613-0.893-3.251-1.279-4.911
				C77.525,113.151,77.95,114.789,78.418,116.402z"/>
			<path style="fill:#EF8829;" d="M80.3,122.197c-0.602-1.675-1.172-3.373-1.688-5.104C79.129,118.825,79.698,120.522,80.3,122.197z
				"/>
			<path style="fill:#EF8829;" d="M109.786,167.449c-0.946-0.965-1.902-1.959-2.87-3C107.884,165.49,108.84,166.483,109.786,167.449
				z"/>
			<path style="fill:#EF8829;" d="M111.357,49.61c0.029-0.049,0.057-0.095,0.085-0.144C111.413,49.515,111.385,49.561,111.357,49.61
				z"/>
			<path style="fill:#EF8829;" d="M108.179,55.104c0.032-0.055,0.064-0.109,0.095-0.164
				C108.242,54.995,108.211,55.049,108.179,55.104z"/>
			<path style="fill:#EF8829;" d="M100.095,156.576c-0.894-1.107-1.785-2.245-2.669-3.411
				C98.311,154.331,99.201,155.469,100.095,156.576z"/>
			<path style="fill:#EF8829;" d="M105.028,60.681c0.033-0.059,0.067-0.119,0.1-0.178C105.095,60.563,105.061,60.622,105.028,60.681
				z"/>
			<path style="fill:#EF8829;" d="M131.055,173.552c-8.923-11.971-24.181-32.005-29.527-51.935
				c-0.891-3.326,0.429-6.833,3.436-8.512c15.479-8.641,20.758-20.46,22.566-28.539c-10.616,3.187-23.411,7.834-23.583,7.897
				c-2.611,0.955-5.555,0.389-7.623-1.469c-2.067-1.859-2.951-4.705-2.281-7.403c0.885-3.565,4.106-10.217,8.125-17.683
				c-0.034,0.064-0.076,0.132-0.11,0.196c-11.998,10.168-18.321,24.868-16.98,42.081c2.167,27.818,17.251,50.305,30.982,65.327
				c3.579,3.27,7.372,5.843,9.707,7.653c2.351-1.713,6.044-3.3,8.044-4.758v-0.019C131.812,175.452,131.752,174.486,131.055,173.552
				z"/>
			<path style="fill:#EF8829;" d="M103.382,160.506c-0.961-1.109-1.924-2.248-2.884-3.426
				C101.459,158.258,102.421,159.397,103.382,160.506z"/>
			<path style="fill:#EF8829;" d="M116.017,173.471c-0.858-0.785-1.746-1.618-2.649-2.482
				C114.271,171.854,115.158,172.686,116.017,173.471z"/>
			<path style="fill:#EF8829;" d="M106.855,164.385c-0.962-1.037-1.934-2.122-2.907-3.231
				C104.922,162.263,105.892,163.348,106.855,164.385z"/>
			<path style="fill:#EF8829;" d="M110.237,167.91c0.937,0.948,1.86,1.858,2.764,2.729
				C112.098,169.769,111.174,168.857,110.237,167.91z"/>
		</g>
		<g>
			<path style="fill:#EF8829;" d="M235.578,195.029c0.609,0.486,1.209,0.977,1.791,1.48
				C236.787,196.006,236.187,195.515,235.578,195.029z"/>
			<path style="fill:#EF8829;" d="M228.737,190.284c1.049,0.626,2.071,1.272,3.059,1.941
				C230.808,191.556,229.787,190.91,228.737,190.284z"/>
			<path style="fill:#EF8829;" d="M232.282,192.572c0.815,0.564,1.614,1.139,2.386,1.731
				C233.895,193.711,233.097,193.136,232.282,192.572z"/>
			<path style="fill:#EF8829;" d="M225.488,188.478c0.804,0.419,1.585,0.856,2.356,1.3
				C227.074,189.335,226.292,188.898,225.488,188.478z"/>
			<path style="fill:#EF8829;" d="M238.314,197.348c0.548,0.495,1.083,0.998,1.606,1.508
				C239.397,198.346,238.862,197.843,238.314,197.348z"/>
			<path style="fill:#EF8829;" d="M243.062,202.162c0.708,0.812,1.392,1.637,2.043,2.478
				C244.454,203.799,243.769,202.975,243.062,202.162z"/>
			<path style="fill:#EF8829;" d="M242.37,201.401c-0.514-0.568-1.036-1.132-1.579-1.684
				C241.333,200.269,241.856,200.833,242.37,201.401z"/>
			<path style="fill:#EF8829;" d="M183.689,179.359c1.739,0,3.438,0.044,5.111,0.114
				C187.126,179.403,185.427,179.359,183.689,179.359z"/>
			<path style="fill:#EF8829;" d="M222.029,186.801c0.758,0.343,1.501,0.699,2.233,1.062
				C223.529,187.5,222.787,187.145,222.029,186.801z"/>
			<path style="fill:#EF8829;" d="M195.529,179.967c1.01,0.104,2.008,0.219,2.992,0.349
				C197.537,180.187,196.539,180.071,195.529,179.967z"/>
			<path style="fill:#EF8829;" d="M200.268,180.56c0.997,0.15,1.976,0.318,2.945,0.495
				C202.244,180.878,201.266,180.71,200.268,180.56z"/>
			<path style="fill:#EF8829;" d="M190.405,179.565c1.125,0.063,2.241,0.134,3.336,0.228
				C192.646,179.699,191.53,179.627,190.405,179.565z"/>
			<path style="fill:#EF8829;" d="M218.312,185.248c0.8,0.31,1.59,0.627,2.364,0.958
				C219.902,185.875,219.112,185.558,218.312,185.248z"/>
			<path style="fill:#EF8829;" d="M245.141,204.685c-11.886-9.289-28.859-15.303-51.43-15.303
				c-50.431,0-73.006,29.975-73.006,59.681c0.119,1.125,2.204,5.634,9.67,13.83c-1.411-1.303-2.861-2.676-4.331-4.123
				c9.107,8.962,17.548,15.396,19.646,16.429c10.024,3.59,22.808,5.41,37.999,5.41c15.192,0,27.976-1.819,38.001-5.41
				c2.098-1.033,10.539-7.467,19.644-16.429c12.168-11.976,15.216-18.359,15.365-19.809
				C256.697,226.914,252.963,214.809,245.141,204.685z"/>
			<path style="fill:#EF8829;" d="M214.145,183.773c0.952,0.307,1.894,0.621,2.813,0.957
				C216.039,184.394,215.097,184.08,214.145,183.773z"/>
			<path style="fill:#EF8829;" d="M204.752,181.336c1.158,0.231,2.29,0.487,3.407,0.756
				C207.041,181.824,205.91,181.568,204.752,181.336z"/>
			<path style="fill:#EF8829;" d="M209.016,182.289c1.386,0.349,2.739,0.728,4.061,1.133
				C211.755,183.017,210.403,182.638,209.016,182.289z"/>
		</g>
		<g>
			<path style="fill:#EF8829;" d="M284.494,128.694c-0.66,1.507-1.354,2.984-2.072,4.438
				C283.139,131.678,283.833,130.201,284.494,128.694z"/>
			<path style="fill:#EF8829;" d="M259.189,55.086c-0.017-0.029-0.033-0.058-0.051-0.088
				C259.156,55.028,259.172,55.057,259.189,55.086z"/>
			<path style="fill:#EF8829;" d="M291.487,105.117c-0.29,1.832-0.629,3.642-1.023,5.422
				C290.858,108.759,291.196,106.95,291.487,105.117z"/>
			<path style="fill:#EF8829;" d="M254.363,170.653c0.913-0.879,1.844-1.799,2.792-2.757
				C256.208,168.854,255.276,169.775,254.363,170.653z"/>
			<path style="fill:#EF8829;" d="M262.35,60.68c-0.032-0.058-0.065-0.116-0.097-0.173C262.285,60.565,262.318,60.623,262.35,60.68z
				"/>
			<path style="fill:#EF8829;" d="M284.716,128.199c0.693-1.604,1.341-3.244,1.96-4.905
				C286.057,124.955,285.409,126.596,284.716,128.199z"/>
			<path style="fill:#EF8829;" d="M279.609,138.483c0.816-1.456,1.608-2.94,2.372-4.455
				C281.217,135.544,280.425,137.028,279.609,138.483z"/>
			<path style="fill:#EF8829;" d="M283.146,64.375c-6.847-9.256-17.201-16.218-30.216-20.014v0.001
				C265.946,48.157,276.299,55.118,283.146,64.375z"/>
			<path style="fill:#EF8829;" d="M283.146,64.375c1.712,2.315,3.204,4.772,4.465,7.359
				C286.351,69.147,284.858,66.689,283.146,64.375z"/>
			<path style="fill:#EF8829;" d="M287.08,122.191c0.601-1.672,1.169-3.366,1.685-5.093
				C288.249,118.825,287.681,120.52,287.08,122.191z"/>
			<path style="fill:#EF8829;" d="M251.315,173.515c13.732-15.023,28.819-37.51,30.986-65.33
				c1.341-17.213-4.981-31.913-16.979-42.081c-0.038-0.07-0.08-0.145-0.118-0.215c4.024,7.474,7.255,14.134,8.142,17.702
				c0.67,2.698-0.203,5.545-2.271,7.402c-2.068,1.859-4.993,2.421-7.603,1.47c-0.172-0.063-12.933-4.712-23.55-7.899
				c1.803,8.082,7.159,19.892,22.655,28.541c3.007,1.679,4.489,5.186,3.596,8.512c-5.345,19.929-20.305,39.964-29.228,51.935
				c-0.695,0.934-2.133,1.9-2.133,2.836v0.019c2,1.457,5.07,3.046,7.422,4.758c2.909-2.255,7.091-5.701,11.793-10.203
				C253.098,171.852,252.197,172.71,251.315,173.515z"/>
			<path style="fill:#EF8829;" d="M292.323,98.162c-0.152,1.958-0.39,3.88-0.666,5.785
				C291.934,102.042,292.171,100.12,292.323,98.162z"/>
			<path style="fill:#EF8829;" d="M257.572,167.47c0.968-0.987,1.946-2.002,2.936-3.069
				C259.518,165.467,258.54,166.484,257.572,167.47z"/>
			<path style="fill:#EF8829;" d="M276.618,143.531c0.848-1.354,1.673-2.743,2.481-4.156
				C278.291,140.787,277.466,142.177,276.618,143.531z"/>
			<path style="fill:#EF8829;" d="M260.512,164.397c0.971-1.045,1.95-2.138,2.932-3.258
				C262.462,162.259,261.482,163.353,260.512,164.397z"/>
			<path style="fill:#EF8829;" d="M290.237,111.497c-0.385,1.654-0.808,3.288-1.275,4.895
				C289.429,114.785,289.853,113.152,290.237,111.497z"/>
			<path style="fill:#EF8829;" d="M270.372,152.617c0.936-1.247,1.861-2.533,2.776-3.845
				C272.233,150.084,271.307,151.369,270.372,152.617z"/>
			<path style="fill:#EF8829;" d="M263.985,160.519c0.966-1.115,1.933-2.259,2.898-3.444
				C265.919,158.259,264.951,159.405,263.985,160.519z"/>
			<path style="fill:#EF8829;" d="M273.726,147.932c0.926-1.351,1.842-2.725,2.735-4.143
				C275.568,145.206,274.651,146.581,273.726,147.932z"/>
			<path style="fill:#EF8829;" d="M267.274,156.587c0.898-1.112,1.793-2.255,2.682-3.427
				C269.068,154.332,268.173,155.475,267.274,156.587z"/>
		</g>
	</g>
	<path style="fill:#3F2D20;" d="M366.075,208.799l-19.684-28.919c-0.931-1.368-2.287-2.391-3.859-2.91l-46.656-15.389
		c-2.351-0.773-4.931-0.343-6.903,1.153l-21.737,16.512c16.557-16.492,37.274-43.944,40.077-79.918
		c3.045-39.084-25.246-69.035-68.798-72.835c-2.834-0.238-5.562,1.126-7.053,3.546c-1.492,2.421-1.49,5.475,0.004,7.894
		c6.335,10.25,14.477,24.013,20.235,34.577c-6.658-2.165-13.838-4.322-18.642-5.256c-2.065-0.399-4.205,0.08-5.898,1.329
		c-1.692,1.249-2.786,3.15-3.011,5.242c-0.139,1.276-2.862,29.886,25.825,49.175c-3.526,9.656-9.448,19.473-15.214,27.92
		c-1.015-10.55-9.924-18.829-20.736-18.829c-11.491,0-20.838,9.347-20.838,20.836v11.741c-3.101-0.219-6.262-0.344-9.498-0.344
		c-3.234,0-6.396,0.124-9.498,0.344v-11.741c0-11.489-9.347-20.836-20.836-20.836c-10.813,0-19.723,8.279-20.737,18.829
		c-5.765-8.447-11.689-18.264-15.212-27.92c28.685-19.289,25.961-47.899,25.824-49.175c-0.227-2.092-1.319-3.992-3.013-5.242
		c-1.693-1.248-3.829-1.727-5.897-1.329c-4.805,0.935-11.985,3.091-18.642,5.256c5.758-10.564,13.902-24.327,20.235-34.577
		c1.494-2.419,1.498-5.473,0.006-7.894c-1.492-2.42-4.221-3.789-7.053-3.546c-43.552,3.8-71.843,33.751-68.799,72.835
		c2.801,35.973,23.514,63.422,40.07,79.913l-21.731-16.507c-1.969-1.497-4.551-1.928-6.901-1.153L24.847,176.97
		c-1.572,0.519-2.929,1.542-3.86,2.91L1.303,208.799c-1.002,1.472-1.449,3.254-1.261,5.024l2.678,25.171
		c0.411,3.858,3.671,6.723,7.466,6.723c0.265,0,0.535-0.015,0.805-0.043c4.128-0.439,7.118-4.142,6.679-8.27l-2.386-22.427
		l16.696-24.529l40.479-13.35l33.281,25.282c-1.053,1.778-2.022,3.608-2.92,5.471l-25.343-18.287
		c-2.153-1.554-4.965-1.857-7.4-0.797l-31.284,13.62c-1.801,0.784-3.224,2.241-3.963,4.061L20.238,242.33
		c-0.703,1.729-0.737,3.658-0.097,5.411l7.629,20.887c1.114,3.049,3.994,4.94,7.061,4.94c0.857,0,1.729-0.148,2.579-0.458
		c3.899-1.424,5.906-5.741,4.482-9.64l-6.634-18.164l12.344-30.357l24.55-10.688l25.429,18.35c-0.523,2.21-0.946,4.446-1.257,6.701
		l-9.854-6.253c-1.903-1.206-4.247-1.498-6.387-0.789l-28.876,9.553c-2.948,0.975-4.992,3.661-5.147,6.76l-1.561,31.218
		c-0.073,1.455,0.279,2.9,1.012,4.159l13.179,22.633c1.397,2.398,3.914,3.735,6.502,3.735c1.284,0,2.587-0.329,3.776-1.022
		c3.588-2.09,4.802-6.691,2.713-10.279l-12.056-20.703l1.192-23.845l20.606-6.817l16.961,10.764
		c2.568,4.827,7.547,11.659,17.232,21.174c2.038,2.003,4.549,4.357,7.212,6.733l-22.589,9.554c-3.706,1.567-5.52,5.774-4.117,9.545
		l11.327,30.437c0.702,1.887,2.132,3.414,3.97,4.237l22.637,10.145c0.999,0.448,2.043,0.66,3.07,0.66
		c2.872,0,5.613-1.655,6.864-4.445c1.697-3.789,0.003-8.237-3.786-9.934l-19.765-8.858l-7.72-20.744l23.489-9.935
		c1.633,1.067,3.094,1.883,4.25,2.3c11.685,4.212,26.23,6.347,43.229,6.347c17.002,0,31.547-2.136,43.229-6.347
		c1.157-0.417,2.617-1.233,4.251-2.3l23.489,9.935l-7.72,20.744l-19.765,8.858c-3.788,1.697-5.483,6.145-3.785,9.934
		c1.25,2.791,3.993,4.445,6.864,4.445c1.028,0,2.071-0.212,3.069-0.66l22.639-10.145c1.837-0.823,3.268-2.35,3.971-4.237
		l11.326-30.437c1.404-3.771-0.411-7.978-4.117-9.545l-22.588-9.554c2.662-2.376,5.172-4.73,7.212-6.733
		c9.684-9.515,14.664-16.347,17.232-21.174l16.961-10.764l20.606,6.817l1.192,23.845l-12.056,20.703
		c-2.09,3.588-0.874,8.189,2.713,10.279c1.189,0.693,2.491,1.022,3.775,1.022c2.588,0,5.107-1.338,6.503-3.735l13.18-22.633
		c0.732-1.259,1.084-2.704,1.011-4.159l-1.561-31.218c-0.155-3.1-2.201-5.785-5.146-6.76l-28.877-9.553
		c-2.141-0.71-4.486-0.418-6.389,0.789l-9.865,6.26c-0.312-2.255-0.733-4.491-1.257-6.701l25.442-18.357l24.548,10.688
		l12.345,30.357l-6.634,18.164c-1.424,3.899,0.582,8.216,4.482,9.64c0.852,0.31,1.722,0.458,2.578,0.458
		c3.068,0,5.949-1.892,7.062-4.94l7.63-20.887c0.64-1.753,0.605-3.682-0.098-5.411l-14.592-35.881
		c-0.74-1.819-2.161-3.277-3.962-4.061l-31.285-13.62c-2.434-1.059-5.246-0.757-7.398,0.797l-25.349,18.29
		c-0.898-1.863-1.862-3.694-2.917-5.473l33.283-25.282l40.479,13.35l16.694,24.529l-2.385,22.427c-0.44,4.128,2.552,7.83,6.68,8.27
		c0.27,0.029,0.538,0.043,0.805,0.043c3.794-0.001,7.055-2.865,7.465-6.723l2.677-25.171
		C367.524,212.053,367.077,210.271,366.075,208.799z M126.044,258.771c-12.167-11.976-15.216-18.359-15.361-19.73
		c0-29.706,22.575-59.681,73.006-59.681c50.433,0,73.006,29.975,73.01,59.602c-0.149,1.45-3.197,7.833-15.365,19.809
		c-9.106,8.962-17.547,15.396-19.644,16.429c-10.025,3.59-22.809,5.41-38.001,5.41c-15.191,0-27.975-1.82-37.999-5.41
		C143.591,274.167,135.151,267.732,126.044,258.771z M114.449,44.361c-8.085,13.618-18.691,32.28-20.416,39.23
		c-0.67,2.698,0.204,5.545,2.271,7.404c2.068,1.858,4.992,2.424,7.603,1.469c0.172-0.063,12.926-4.71,23.542-7.897
		c-1.809,8.08-7.168,19.899-22.647,28.539c-3.007,1.679-4.49,5.186-3.598,8.512c5.346,19.929,20.281,39.964,29.203,51.935
		c0.697,0.934,1.416,1.9,2.108,2.837v0.018c-2.579,1.457-5.045,3.045-7.396,4.758c-12.255-9.5-46.704-39.851-50.065-83.003
		C73.032,72.206,88.418,51.953,114.449,44.361z M147.55,152.928c0-3.2,2.603-5.802,5.804-5.802c3.2,0,5.802,2.603,5.802,5.802
		v13.757c-4.025,0.818-7.889,1.866-11.606,3.103V152.928z M208.221,152.928c0-3.2,2.604-5.802,5.804-5.802
		c3.2,0,5.803,2.603,5.803,5.802v16.86c-3.716-1.237-7.581-2.285-11.608-3.103V152.928z M263.472,92.463
		c2.609,0.951,5.534,0.389,7.602-1.47c2.068-1.858,2.941-4.704,2.272-7.403c-1.727-6.95-12.332-25.612-20.416-39.23
		c26.03,7.593,41.416,27.846,39.394,53.801c-3.362,43.157-37.818,73.509-50.064,83.003c-2.352-1.712-4.818-3.3-7.397-4.758v-0.018
		c0.692-0.937,1.412-1.903,2.107-2.837c8.924-11.971,23.858-32.005,29.203-51.935c0.892-3.326-0.589-6.833-3.596-8.512
		c-15.496-8.649-20.852-20.46-22.655-28.541C250.538,87.751,263.3,92.401,263.472,92.463z"/>
</g>
<g>
</g>
<g>
</g>
<g>
</g>
<g>
</g>
<g>
</g>
<g>
</g>
<g>
</g>
<g>
</g>
<g>
</g>
<g>
</g>
<g>
</g>
<g>
</g>
<g>
</g>
<g>
</g>
<g>
</g>
</svg>
