<?xml version="1.0" encoding="iso-8859-1"?>
<!-- Generator: Adobe Illustrator 18.0.0, SVG Export Plug-In . SVG Version: 6.00 Build 0)  -->
<!DOCTYPE svg PUBLIC "-//W3C//DTD SVG 1.1//EN" "http://www.w3.org/Graphics/SVG/1.1/DTD/svg11.dtd">
<svg version="1.1" id="Capa_1" xmlns="http://www.w3.org/2000/svg" xmlns:xlink="http://www.w3.org/1999/xlink" x="0px" y="0px"
	 viewBox="0 0 382.763 382.763" style="enable-background:new 0 0 382.763 382.763;" xml:space="preserve">
<g>
	<path style="fill:#FDD44B;" d="M223.197,20.944c12.16,7.743,20.581,16.484,24.501,20.988
		c32.607,37.465,26.371,83.538,3.359,109.687c-14.003,15.913-35.372,25.829-57.161,26.523c-0.822,0.027-1.646,0.039-2.464,0.039
		c-19.515,0.001-37.642-7.426-51.28-21.064c-13.208-13.209-20.483-30.014-20.483-47.317c0-17.304,7.274-34.108,20.483-47.317
		c10.694-10.694,26.092-16.827,42.245-16.827c6.997,0,13.85,1.154,20.242,3.328c27.258,5.054,47.905,28.938,47.905,57.66
		c0,15.568-6.076,29.71-15.972,40.211c1.837-1.626,3.582-3.345,5.192-5.175c18.69-21.238,24.92-60.205-3.413-89.875
		c-23.584-24.697-32.468-24.209-28.676-22.246c-20.292-5.768-40.136-1.681-59.039,12.153c-19.366,16.29-31.697,40.69-31.697,67.918
		c0,34.356,19.636,64.43,48.265,79.168c8.278,2.561,17.068,4.175,26.176,4.175h0.004c48.927,0,88.733-40.038,88.733-88.967
		C280.119,66.286,256.456,33.761,223.197,20.944z"/>
	<g>
		<path style="fill:#EF8829;" d="M186.285,60.879c0.356,0.029,0.713,0.052,1.067,0.089
			C186.998,60.931,186.641,60.907,186.285,60.879z"/>
		<path style="fill:#EF8829;" d="M182.398,60.699c-12.194,0-23.715,4.527-31.609,12.422
			C158.683,65.226,170.205,60.699,182.398,60.699L182.398,60.699z"/>
		<path style="fill:#EF8829;" d="M134.976,104.836c1.235-11.535,6.741-22.643,15.812-31.715
			C141.717,82.192,136.211,93.3,134.976,104.836z"/>
		<path style="fill:#EF8829;" d="M202.639,48.986c8.366,2.845,15.941,7.437,22.003,13.499c8.965,8.964,13.903,20.885,13.903,33.563
			c0,12.679-4.938,24.599-13.903,33.565c-7.349,7.347-18.112,11.561-29.535,11.561c-11.421,0-22.185-4.213-29.533-11.561
			c-6.249-6.249-9.691-14.558-9.691-23.396c0-8.839,3.442-17.147,9.692-23.395c5.282-5.283,12.307-8.193,19.778-8.193
			c4.549,0,8.93,1.084,12.855,3.12c13.297,2.898,23.256,14.731,23.256,28.897c0,0.247-0.013,0.491-0.018,0.737
			c4.282-11.527,1.809-25.014-7.441-34.263c-6.759-6.761-16.185-11.025-26.409-12.119c-10.18,1.113-19.558,5.384-26.293,12.119
			c-10.366,10.368-16.077,23.395-16.077,36.681s5.711,26.313,16.077,36.68c11.486,11.487,24.451,15.447,35.056,16.402
			c14.156-1.112,27.859-6.866,38.213-16.026c9.895-10.501,15.972-24.643,15.972-40.211C250.545,77.924,229.897,54.04,202.639,48.986
			z"/>
		<path style="fill:#EF8829;" d="M150.788,146.481c13.506,13.506,29.062,16.617,40.417,16.659
			C179.851,163.098,164.295,159.987,150.788,146.481z"/>
		<path style="fill:#EF8829;" d="M150.788,146.481c-9.071-9.071-14.577-20.179-15.812-31.715
			C136.211,126.302,141.717,137.41,150.788,146.481z"/>
	</g>
	<g>
		<path style="fill:#CE593F;" d="M198.208,77.749c2.522,1.308,4.858,3.005,6.925,5.073c6.137,6.138,7.449,16.307,2.988,23.152
			c-3.133,4.803-9.856,8.628-19.343,4.948c-3.873-1.501-5.794-5.858-4.292-9.731c1.501-3.872,5.856-5.794,9.731-4.292
			c0.643,0.249,1.106,0.359,1.421,0.409c0.009-0.005,0.018-0.009,0.027-0.014c0.157-0.931-0.053-2.722-1.167-3.835
			c-1.518-1.518-3.367-2.553-5.363-3.164c-1.936,0.619-3.712,1.686-5.19,3.164c-3.409,3.409-5.286,7.94-5.286,12.76
			c0,4.82,1.877,9.351,5.285,12.759c3.732,3.732,9.041,6.15,14.947,6.901c5.971-0.727,11.351-3.135,15.116-6.901
			c3.394-3.394,5.869-7.363,7.441-11.593c0.006-0.246,0.018-0.491,0.018-0.737C221.465,92.48,211.505,80.646,198.208,77.749z"/>
		<path style="fill:#CE593F;" d="M187.634,89.893c0.256,0.046,0.505,0.115,0.757,0.176
			C188.138,90.008,187.891,89.939,187.634,89.893z"/>
		<path style="fill:#CE593F;" d="M198.62,125.912c-1.154,0.131-2.322,0.22-3.512,0.22
			C196.298,126.132,197.466,126.042,198.62,125.912z"/>
	</g>
	<g>
		<path style="fill:#84BD93;" d="M195.91,207.45c-1.5,0.066-3.133,0.105-4.649,0.105c0.194,0,0.455-0.006,0.455-0.007v155.644
			c0,1.548,0.908,2.915,2.097,3.733c-0.326,0.225-0.227,0.392-0.606,0.526c1.765-0.619,3.509-2.284,3.509-4.259V207.548
			c0-0.005-1.719-0.012-2.374-0.03C195,207.5,195.255,207.479,195.91,207.45z"/>
		<path style="fill:#84BD93;" d="M192.602,367.533c-0.39,0.111-0.794,0.189-1.219,0.189
			C191.808,367.721,192.211,367.643,192.602,367.533z"/>
	</g>
	<path style="fill:#3F2D20;" d="M191.382,0c-39.045,0-67.331,24.816-67.623,25.122c-22.123,19.047-36.155,47.243-36.155,78.657
		c0,50.534,36.31,92.739,84.209,101.918v157.495c0,10.789,8.777,19.569,19.571,19.572c10.79-0.003,19.569-8.783,19.569-19.572
		V205.696c47.899-9.177,84.209-51.384,84.209-101.919C295.16,46.554,248.605,0,191.382,0z M195.91,363.191
		c0,2.497-2.033,4.529-4.527,4.53c-2.497-0.001-4.529-2.033-4.529-4.53V207.45c1.502,0.066,3.01,0.105,4.528,0.105h0.004
		c1.516,0,3.024-0.039,4.524-0.105V363.191z M191.386,192.513h-0.004c-48.93,0-88.737-39.806-88.737-88.735
		c0-27.229,12.331-51.628,31.698-67.918c19.631-14.369,40.278-18.227,61.387-11.448c21.613,6.942,36.557,22.723,40.623,27.394
		c26.933,30.946,22.103,68.637,3.413,89.875c-1.61,1.83-3.355,3.549-5.192,5.175c-11.072,9.795-25.965,15.767-41.155,16.252
		c-11.484,0.358-28.223-2.222-42.629-16.628c-10.368-10.368-16.078-23.395-16.078-36.68s5.71-26.313,16.078-36.68
		c7.895-7.895,19.416-12.422,31.609-12.422c12.194,0,23.715,4.527,31.608,12.422c9.249,9.248,11.723,22.736,7.44,34.262
		c-1.572,4.229-4.046,8.198-7.44,11.593c-4.548,4.549-11.436,7.157-18.898,7.157c-7.461,0-14.349-2.608-18.898-7.157
		c-3.408-3.408-5.285-7.939-5.285-12.759c0-4.82,1.877-9.351,5.286-12.76c2.442-2.442,5.689-3.787,9.143-3.787
		c3.454,0,6.701,1.346,9.143,3.788c1.12,1.119,1.329,2.928,1.166,3.854c-0.314-0.048-0.789-0.16-1.446-0.414
		c-3.875-1.502-8.23,0.42-9.731,4.292c-1.502,3.873,0.419,8.23,4.292,9.731c9.487,3.68,16.211-0.145,19.343-4.948
		c4.461-6.845,3.149-17.014-2.988-23.152c-2.067-2.067-4.403-3.764-6.925-5.073c-3.925-2.036-8.305-3.12-12.855-3.12
		c-7.472,0-14.496,2.909-19.778,8.192c-6.249,6.249-9.692,14.557-9.692,23.396c0,8.838,3.442,17.147,9.691,23.396
		c7.348,7.347,18.112,11.561,29.533,11.561c11.422,0,22.186-4.214,29.535-11.561c8.965-8.965,13.903-20.886,13.903-33.564
		s-4.938-24.599-13.903-33.563c-6.062-6.062-13.637-10.654-22.003-13.499c-6.392-2.174-13.244-3.328-20.241-3.328
		c-16.153,0-31.551,6.133-42.245,16.827c-13.209,13.209-20.483,30.013-20.483,47.317c0,17.303,7.275,34.108,20.483,47.317
		c13.638,13.638,31.765,21.065,51.28,21.064c0.818,0,1.642-0.013,2.464-0.039c21.789-0.694,43.157-10.61,57.161-26.523
		c23.012-26.149,29.247-72.223-3.359-109.687c-3.92-4.504-12.341-13.245-24.501-20.988c33.259,12.817,56.922,45.112,56.922,82.834
		C280.119,152.706,240.312,192.513,191.386,192.513z"/>
</g>
<g>
</g>
<g>
</g>
<g>
</g>
<g>
</g>
<g>
</g>
<g>
</g>
<g>
</g>
<g>
</g>
<g>
</g>
<g>
</g>
<g>
</g>
<g>
</g>
<g>
</g>
<g>
</g>
<g>
</g>
</svg>
