<?xml version="1.0" encoding="iso-8859-1"?>
<!-- Generator: Adobe Illustrator 19.0.0, SVG Export Plug-In . SVG Version: 6.00 Build 0)  -->
<svg version="1.1" id="Capa_1" xmlns="http://www.w3.org/2000/svg" xmlns:xlink="http://www.w3.org/1999/xlink" x="0px" y="0px"
	 viewBox="0 0 512.001 512.001" style="enable-background:new 0 0 512.001 512.001;" xml:space="preserve">
<g>
	<path style="fill:#ACD670;" d="M111.325,267.326l0.012,0.01c0.17-0.041,39.846-6.526,62.977,14.15
		c23.133,20.689,21.85,61.435,21.846,61.608l0.006,0.005l0,0l-0.004-0.003l-0.007-0.006c-0.65,0-50.019,2.498-61.588-32.159
		C123.724,278.447,111.325,267.326,111.325,267.326z"/>
	<path style="fill:#ACD670;" d="M187.981,247.784l0.009,0.008c0.136-0.033,31.942-5.231,50.483,11.343
		c18.544,16.585,17.516,49.247,17.512,49.386l0.005,0.004l0,0l-0.003-0.002l-0.006-0.005c-0.521,0-40.096,2.002-49.37-25.78
		C197.92,256.699,187.981,247.784,187.981,247.784z"/>
	<path style="fill:#ACD670;" d="M305.338,282.739c-9.274,27.782-48.848,25.78-49.37,25.78l-0.006,0.005l-0.003,0.002l0,0
		l0.005-0.004c-0.004-0.139-1.032-32.801,17.512-49.386c18.542-16.575,50.347-11.376,50.483-11.343l0.009-0.008
		C323.97,247.784,314.031,256.699,305.338,282.739z"/>
	<path style="fill:#ACD670;" d="M122.778,147.839l0.008-0.009c-0.033-0.136-5.231-31.942,11.343-50.483
		c16.585-18.544,49.247-17.516,49.386-17.512l0.004-0.005l0,0l-0.002,0.003l-0.005,0.006c0,0.521,2.002,40.096-25.78,49.37
		C131.693,137.9,122.778,147.839,122.778,147.839z"/>
	<path style="fill:#ACD670;" d="M179.591,31.385l0.011,0.009c0.153-0.037,35.941-5.887,56.805,12.764
		c20.866,18.662,19.709,55.414,19.705,55.571l0.006,0.005l0,0l-0.003-0.003l-0.006-0.006c-0.587,0-45.117,2.253-55.552-29.008
		C190.774,41.415,179.591,31.385,179.591,31.385z"/>
	<path style="fill:#ACD670;" d="M311.566,70.717c-10.435,31.261-54.965,29.008-55.552,29.008l-0.006,0.006l-0.003,0.003l0,0
		l0.006-0.005c-0.004-0.156-1.161-36.909,19.705-55.571c20.864-18.65,56.652-12.801,56.805-12.764l0.011-0.009
		C332.53,31.385,321.347,41.415,311.566,70.717z"/>
	<path style="fill:#ACD670;" d="M376.248,310.931c-11.569,34.657-60.937,32.159-61.588,32.159l-0.007,0.006l-0.004,0.003l0,0
		l0.006-0.005c-0.005-0.173-1.287-40.919,21.846-61.608c23.131-20.676,62.807-14.192,62.977-14.15l0.012-0.01
		C399.49,267.326,387.092,278.447,376.248,310.931z"/>
	<path style="fill:#ACD670;" d="M354.265,129.207c-27.782-9.274-25.78-48.848-25.78-49.37l-0.005-0.006l-0.002-0.003l0,0
		l0.004,0.005c0.139-0.004,32.801-1.032,49.386,17.512c16.575,18.542,11.376,50.347,11.343,50.483l0.008,0.009
		C389.219,147.839,380.305,137.9,354.265,129.207z"/>
</g>
<g>
	<circle style="fill:#EF7159;" cx="159.998" cy="402.706" r="31.988"/>
	<circle style="fill:#EF7159;" cx="79.339" cy="326.497" r="31.988"/>
	<circle style="fill:#EF7159;" cx="69.99" cy="227.849" r="31.988"/>
	<circle style="fill:#EF7159;" cx="196.177" cy="169.969" r="31.988"/>
	<circle style="fill:#EF7159;" cx="121.988" cy="45.519" r="31.988"/>
	<circle style="fill:#EF7159;" cx="64.319" cy="115.85" r="31.987"/>
	<circle style="fill:#EF7159;" cx="41.829" cy="414.286" r="31.988"/>
	<circle style="fill:#EF7159;" cx="352.045" cy="402.706" r="31.988"/>
	<circle style="fill:#EF7159;" cx="432.703" cy="326.497" r="31.988"/>
	<circle style="fill:#EF7159;" cx="442.053" cy="227.849" r="31.988"/>
	<circle style="fill:#EF7159;" cx="315.875" cy="169.969" r="31.988"/>
	<circle style="fill:#EF7159;" cx="390.054" cy="45.519" r="31.988"/>
	<circle style="fill:#EF7159;" cx="447.723" cy="115.85" r="31.987"/>
	<circle style="fill:#EF7159;" cx="470.213" cy="414.286" r="31.988"/>
</g>
<path d="M107.999,488.473H10.001c-5.523,0-10,4.477-10,10s4.477,10,10,10h97.998c5.523,0,10-4.477,10-10
	S113.522,488.473,107.999,488.473z"/>
<path d="M142.658,488.473h-0.13c-5.523,0-10,4.477-10,10s4.477,10,10,10h0.13c5.523,0,10-4.477,10-10
	S148.181,488.473,142.658,488.473z"/>
<path d="M501.993,488.473H265.997v-45.216c0-0.023,0.003-0.045,0.003-0.068c0-0.045-0.002-0.09-0.002-0.135
	c0.055-39.294,24.1-73.07,58.243-87.44c1.088,0.406,2.26,0.638,3.489,0.638c4.977,0,9.374,2.527,11.978,6.364
	c-17.072,5.33-29.498,21.287-29.498,40.091c0,23.152,18.835,41.987,41.987,41.987s41.987-18.835,41.987-41.987
	c0-20.141-14.257-37.008-33.207-41.057c-1.342-4.912-3.743-9.389-6.945-13.17c2.288-0.166,4.596-0.254,6.926-0.254
	c30.546,0,59.073,14.632,76.942,39.296c-4.901,5.795-8.287,12.931-9.449,20.824c-0.805,5.464,2.972,10.545,8.436,11.35
	c5.458,0.801,10.545-2.972,11.35-8.436c1.575-10.692,10.931-18.754,21.764-18.754c12.13,0,21.999,9.868,22,21.998
	c0,10.786-7.703,19.909-18.314,21.692c-5.447,0.916-9.12,6.073-8.204,11.52c0.821,4.886,5.055,8.344,9.85,8.344
	c0.551,0,1.109-0.045,1.67-0.14c20.279-3.409,34.997-20.827,34.998-41.415c0-23.158-18.842-41.997-41.999-41.997
	c-0.001,0,0,0-0.001,0c-5.609,0-11.008,1.142-15.963,3.203c-2.413-3.325-4.993-6.493-7.712-9.509
	c16.479-5.674,28.357-21.323,28.357-39.703c0-23.152-18.835-41.987-41.987-41.987c-23.153,0-41.987,18.836-41.987,41.987
	c0,1.953,0.145,3.873,0.404,5.756c-4.512-1.225-9.114-2.178-13.784-2.848c3.563-4.384,6.452-9.455,8.406-15.309
	c9.518-28.514,20.142-39.039,20.521-39.407c4.048-3.719,4.337-10.009,0.643-14.082c-1.839-2.028-4.32-3.127-6.854-3.268
	c-8.631-1.19-46.167-4.799-70.208,16.692c-25.2,22.538-25.316,62.916-25.184,68.961c-15.444,8.714-28.684,20.891-38.654,35.474
	v-60.255c19.88-1.793,41.667-10.861,48.826-32.307c7.524-22.54,15.861-30.709,15.945-30.789l-0.121,0.111l-0.035-0.04
	c2.044-1.827,3.338-4.476,3.338-7.434c0-5.33-4.181-9.67-9.44-9.953c-5.398-0.713-21.989-2.21-38.183,3.019
	c17.403-22.096,44.388-36.307,74.632-36.307c14.502,0,28.716,3.299,41.609,9.587c-1.648,4.496-2.548,9.349-2.548,14.409
	c0,23.152,18.836,41.987,41.987,41.987s41.987-18.836,41.987-41.987s-18.835-41.987-41.987-41.987
	c-10.823,0-20.702,4.118-28.156,10.867c-16.276-8.441-34.395-12.876-52.894-12.876c-1.759,0-3.507,0.046-5.248,0.125
	c1.708-4.568,2.648-9.508,2.648-14.665c0-23.152-18.836-41.987-41.987-41.987s-41.987,18.836-41.987,41.987
	c0,15.119,8.035,28.394,20.056,35.787c-11.104,7.905-20.745,17.734-28.443,28.993v-55.329c0-0.023,0.003-0.045,0.003-0.068
	c0-0.052-0.002-0.102-0.002-0.154c0.06-37.351,21.797-69.712,53.277-85.156c2.636,18.667,11.871,37.985,31.822,44.645
	c22.541,7.524,30.71,15.861,30.79,15.944l-0.111-0.121l0.03-0.026c1.827,2.035,4.47,3.323,7.421,3.323
	c4.697,0,8.625-3.249,9.687-7.619l0.014,0.003c0.003-0.013,0.016-0.086,0.034-0.191c0.098-0.441,0.166-0.894,0.203-1.355
	c0.983-7.197,3.905-38.118-13.843-57.972c-1.324-1.48-2.727-2.845-4.182-4.124c0.214,0.046,0.427,0.094,0.642,0.137
	c9.893,2.208,19.362,5.983,28.109,11.261c-1.65,3.552-2.825,7.373-3.417,11.393c-0.805,5.464,2.972,10.545,8.436,11.35
	c5.457,0.801,10.545-2.972,11.35-8.436c1.575-10.691,10.931-18.754,21.765-18.754c12.13,0,21.999,9.868,22,21.998
	c0,10.786-7.703,19.909-18.314,21.693c-5.446,0.916-9.119,6.073-8.203,11.52c0.821,4.885,5.055,8.343,9.849,8.343
	c0.551,0,1.109-0.045,1.67-0.14c20.279-3.41,34.997-20.827,34.997-41.415c0-23.158-18.842-41.997-41.999-41.997
	c-9.496,0-18.393,3.256-25.535,8.748c-2.116-1.345-4.262-2.63-6.448-3.828c9.71-7.697,15.956-19.583,15.956-32.907
	c0-23.152-18.835-41.987-41.987-41.987s-41.987,18.835-41.987,41.987c0,6.907,1.687,13.424,4.655,19.178
	c-10.704,0.766-21.006,3.003-30.706,6.51c8.345-23.72,17.252-32.388,17.344-32.476l-0.107,0.099l-0.019-0.021
	c2.034-1.827,3.322-4.469,3.322-7.419c0-4.693-3.243-8.618-7.607-9.684l0.005-0.021c-0.017-0.004-0.118-0.023-0.29-0.052
	c-0.37-0.079-0.748-0.138-1.132-0.174c-7.415-1.058-42.17-4.659-64.438,15.247c-5.562,4.974-9.778,10.89-12.988,17.077
	c-3.21-6.188-7.426-12.104-12.988-17.079c-22.261-19.899-57.006-16.303-64.431-15.245c-0.387,0.037-0.767,0.096-1.14,0.175
	c-0.17,0.029-0.27,0.047-0.287,0.052l0.005,0.021c-4.364,1.066-7.607,4.992-7.607,9.684c0,2.95,1.287,5.592,3.322,7.419
	l-0.019,0.021l-0.107-0.099c0.092,0.088,9.012,8.768,17.362,32.526c-9.742-3.537-20.092-5.791-30.848-6.56
	c2.968-5.753,4.655-12.27,4.655-19.178c0-23.152-18.835-41.987-41.987-41.987S80.001,22.367,80.001,45.519
	c0,13.325,6.246,25.21,15.956,32.907c-2.119,1.161-4.2,2.406-6.253,3.706c-7.115-5.418-15.948-8.626-25.372-8.626
	c-0.001,0,0,0-0.001,0c-23.156,0-41.998,18.841-41.998,41.998c0,20.588,14.719,38.004,34.997,41.414
	c0.562,0.095,1.119,0.14,1.67,0.14c4.793,0,9.028-3.458,9.849-8.343c0.916-5.446-2.757-10.604-8.203-11.52
	c-10.612-1.785-18.314-10.908-18.314-21.692c0-12.13,9.869-21.999,22-21.999c10.833,0,20.189,8.063,21.764,18.754
	c0.805,5.464,5.891,9.239,11.35,8.436c5.464-0.805,9.241-5.886,8.436-11.35c-0.601-4.082-1.804-7.958-3.494-11.556
	c8.67-5.191,18.041-8.913,27.829-11.098c0.215-0.043,0.428-0.091,0.642-0.137c-1.455,1.279-2.859,2.644-4.183,4.125
	c-20.092,22.478-13.688,59.168-13.603,59.516l0.061-0.015c1.058,4.376,4.989,7.63,9.69,7.63c2.938,0,5.572-1.278,7.398-3.299
	l0.002,0.002l-0.111,0.121c0.08-0.083,8.249-8.42,30.789-15.944c19.946-6.658,29.182-25.966,31.82-44.646
	c31.449,15.427,53.174,47.737,53.278,85.042v0.231c0,0.013,0,0.026,0,0.038c0,0.003,0,0.006,0,0.01v55.383
	c-7.697-11.257-17.338-21.085-28.44-28.989c12.022-7.394,20.057-20.669,20.057-35.787c0-23.152-18.836-41.987-41.987-41.987
	s-41.987,18.836-41.987,41.987c0,5.157,0.939,10.097,2.648,14.665c-1.74-0.079-3.488-0.125-5.247-0.125
	c-18.499,0-36.618,4.435-52.894,12.876c-7.453-6.749-17.332-10.867-28.156-10.867c-23.152,0-41.987,18.835-41.987,41.987
	s18.834,41.988,41.985,41.988s41.987-18.836,41.987-41.987c0-5.06-0.9-9.913-2.548-14.409c12.894-6.289,27.108-9.587,41.609-9.587
	c30.252,0,57.244,14.22,74.647,36.325c-16.219-5.253-32.848-3.75-38.249-3.036c-5.257,0.285-9.435,4.625-9.435,9.953
	c0,2.958,1.294,5.606,3.338,7.434l-0.035,0.039l-0.121-0.111c0.083,0.08,8.42,8.249,15.944,30.789
	c7.162,21.455,28.96,30.521,48.87,32.307v60.25c-10.223-14.95-23.878-27.374-39.822-36.126c0.089-7.93-0.791-46.479-25.196-68.306
	c-24.074-21.52-61.679-17.87-70.242-16.685c-2.52,0.151-4.984,1.25-6.813,3.268c-3.69,4.069-3.4,10.355,0.636,14.076
	c0.357,0.346,10.994,10.864,20.522,39.408c1.976,5.92,4.908,11.039,8.527,15.457c-4.295,0.657-8.527,1.562-12.687,2.69
	c0.259-1.88,0.403-3.796,0.403-5.746c0-23.152-18.836-41.987-41.987-41.987s-41.987,18.836-41.987,41.987
	c0,18.372,11.865,34.013,28.331,39.694c-2.742,3.04-5.342,6.233-7.773,9.588c-5.001-2.107-10.492-3.273-16.251-3.273
	c-0.001,0,0,0-0.001,0c-20.677,0-38.539,15.408-41.548,35.839c-0.805,5.464,2.972,10.545,8.436,11.35
	c5.459,0.801,10.546-2.972,11.35-8.436c1.575-10.692,10.931-18.754,21.764-18.754c12.13,0,21.999,9.868,22,21.998
	c0,10.785-7.702,19.908-18.314,21.692c-5.447,0.916-9.12,6.073-8.204,11.52c0.822,4.886,5.055,8.344,9.85,8.344
	c0.551,0,1.109-0.045,1.67-0.14c20.28-3.41,34.998-20.827,34.998-41.415c0-10.18-3.644-19.524-9.692-26.802
	c17.861-24.774,46.454-39.476,77.075-39.476c2.394,0,4.767,0.091,7.117,0.266c-3.197,3.779-5.594,8.251-6.934,13.158
	c-18.95,4.049-33.207,20.917-33.207,41.057c0,23.152,18.836,41.987,41.987,41.987s41.987-18.835,41.987-41.987
	c0-18.805-12.427-34.761-29.499-40.091c2.604-3.837,7.001-6.364,11.978-6.364c1.189,0,2.324-0.218,3.382-0.599
	c34.054,14.375,58.037,48.065,58.146,87.266v45.552h-69.393c-5.523,0-10,4.477-10,10s4.477,10,10,10h325.389c5.523,0,10-4.477,10-10
	S507.516,488.473,501.993,488.473z M374.185,402.707c0,12.124-9.864,21.988-21.988,21.988c-12.124,0-21.988-9.864-21.988-21.988
	c0-12.125,9.864-21.988,21.988-21.988C364.321,380.719,374.185,390.583,374.185,402.707z M432.694,304.51
	c12.124,0,21.988,9.864,21.988,21.988s-9.864,21.988-21.988,21.988c-12.125,0-21.988-9.864-21.988-21.988
	C410.707,314.374,420.571,304.51,432.694,304.51z M325.128,332.748c1.163-12.093,5.068-32.207,18.038-43.806
	c10.049-8.983,25.103-11.949,37.349-12.52c-4.293,7.406-9.175,17.631-13.752,31.342c-4.415,13.226-16.57,19.584-28.025,22.625
	c-1.933,0.38-3.849,0.808-5.746,1.284C330.185,332.189,327.514,332.529,325.128,332.748z M442.007,206.522
	c12.124,0,21.988,9.864,21.988,21.988c0,12.125-9.864,21.988-21.988,21.988c-12.125,0-21.988-9.864-21.988-21.988
	C420.02,216.386,429.882,206.522,442.007,206.522z M316.371,147.986c12.125,0,21.988,9.864,21.988,21.988
	c0,12.124-9.864,21.988-21.988,21.988s-21.988-9.864-21.988-21.988C294.384,157.85,304.247,147.986,316.371,147.986z
	 M195.626,147.986c12.125,0,21.988,9.864,21.988,21.988c0,12.124-9.864,21.988-21.988,21.988s-21.988-9.864-21.988-21.988
	C173.638,157.85,183.502,147.986,195.626,147.986z M69.99,250.498c-12.125,0-21.988-9.864-21.988-21.988
	c0-12.124,9.864-21.988,21.988-21.988s21.988,9.864,21.988,21.988C91.979,240.634,82.115,250.498,69.99,250.498z M167.648,288.94
	c12.967,11.598,16.875,31.703,18.038,43.808c-1.469-0.135-3.05-0.318-4.7-0.556c-3.613-0.976-7.296-1.779-11.039-2.401
	c-10.797-3.252-21.752-9.619-25.894-22.026c-4.577-13.712-9.459-23.937-13.752-31.344
	C142.546,276.993,157.602,279.959,167.648,288.94z M57.35,326.499c0-12.125,9.864-21.988,21.988-21.988s21.988,9.864,21.988,21.988
	s-9.864,21.988-21.988,21.988S57.35,338.623,57.35,326.499z M181.99,402.707c0,12.124-9.864,21.988-21.988,21.988
	s-21.988-9.864-21.988-21.988c0-12.125,9.864-21.988,21.988-21.988S181.99,390.583,181.99,402.707z M295.853,279.573
	c-4.346,13.021-19.016,17.152-29.264,18.428c1.163-9.461,4.432-23.253,13.552-31.41c6.71-5.998,16.444-8.476,25.121-9.288
	C302.219,262.995,298.942,270.318,295.853,279.573z M265.997,109.489c1.339-0.103,2.687-0.235,4.041-0.399
	c-1.4,1.807-2.748,3.656-4.041,5.546V109.489z M339.003,90.458c9.459,1.163,23.253,4.432,31.411,13.552
	c5.998,6.71,8.475,16.445,9.288,25.121c-5.692-3.042-13.016-6.319-22.27-9.409C344.411,115.376,340.279,100.707,339.003,90.458z
	 M390.009,23.532c12.124,0,21.988,9.864,21.988,21.988c0,12.125-9.864,21.988-21.988,21.988c-1.444,0-2.855-0.144-4.222-0.411
	c-0.222-0.049-0.444-0.096-0.666-0.143c-9.778-2.229-17.1-10.99-17.1-21.434C368.021,33.396,377.885,23.532,390.009,23.532z
	 M282.379,51.612c8.389-7.499,20.783-10.246,31.302-10.946c-3.684,6.592-7.765,15.397-11.6,26.885l0,0
	c-5.329,15.963-23.698,20.509-35.541,21.757C267.699,78.476,271.3,61.521,282.379,51.612z M229.741,51.61
	c11.079,9.909,14.681,26.861,15.841,37.696c-11.844-1.248-30.213-5.795-35.541-21.756c-3.834-11.487-7.916-20.293-11.6-26.885
	C208.96,41.366,221.355,44.113,229.741,51.61z M121.988,67.507c-12.125,0-21.988-9.864-21.988-21.988s9.864-21.988,21.988-21.988
	s21.988,9.864,21.988,21.988c0,10.443-7.32,19.202-17.096,21.433c-0.224,0.048-0.447,0.095-0.671,0.144
	C124.842,67.363,123.432,67.507,121.988,67.507z M154.567,119.722c-9.254,3.089-16.578,6.367-22.27,9.409
	c0.812-8.676,3.289-18.41,9.286-25.119c8.158-9.121,21.949-12.39,31.413-13.553C171.718,100.708,167.587,115.376,154.567,119.722z
	 M241.945,109.07c1.357,0.167,2.708,0.298,4.052,0.404v5.157C244.701,112.736,243.349,110.882,241.945,109.07z M216.098,279.573
	c-3.089-9.254-6.367-16.578-9.409-22.27c8.676,0.812,18.41,3.289,25.119,9.286c9.121,8.158,12.39,21.949,13.553,31.411
	C235.112,296.724,220.444,292.593,216.098,279.573z"/>
<path d="M440.852,430.425c-3.948,3.862-4.017,10.194-0.154,14.141l0.21,0.213c1.951,1.95,4.504,2.924,7.059,2.924
	c2.555,0,5.112-0.975,7.066-2.924c3.907-3.897,3.911-10.23,0.019-14.142l-0.059-0.06
	C451.129,426.63,444.798,426.561,440.852,430.425z"/>
<path d="M12.565,444.779c1.951,1.95,4.504,2.924,7.059,2.924s5.112-0.975,7.066-2.924c3.907-3.897,3.911-10.23,0.019-14.142
	l-0.059-0.06c-3.864-3.948-10.195-4.017-14.141-0.154c-3.948,3.862-4.017,10.194-0.154,14.141L12.565,444.779z"/>
<path d="M418.874,131.424c-3.948,3.862-4.017,10.194-0.154,14.141l0.21,0.213c1.951,1.95,4.504,2.924,7.059,2.924
	s5.112-0.975,7.066-2.924c3.907-3.897,3.911-10.23,0.019-14.142l-0.059-0.06C429.151,127.629,422.821,127.561,418.874,131.424z"/>
<path d="M93.464,145.738l0.17-0.173c3.863-3.947,3.794-10.279-0.154-14.141c-3.947-3.861-10.278-3.794-14.141,0.154l-0.096,0.097
	c-3.884,3.926-3.849,10.257,0.078,14.141c1.949,1.928,4.491,2.89,7.032,2.89C88.931,148.706,91.509,147.715,93.464,145.738z"/>
<g>
</g>
<g>
</g>
<g>
</g>
<g>
</g>
<g>
</g>
<g>
</g>
<g>
</g>
<g>
</g>
<g>
</g>
<g>
</g>
<g>
</g>
<g>
</g>
<g>
</g>
<g>
</g>
<g>
</g>
</svg>
