<?xml version="1.0" encoding="iso-8859-1"?>
<!-- Generator: Adobe Illustrator 19.0.0, SVG Export Plug-In . SVG Version: 6.00 Build 0)  -->
<svg version="1.1" id="Layer_1" xmlns="http://www.w3.org/2000/svg" xmlns:xlink="http://www.w3.org/1999/xlink" x="0px" y="0px"
	 viewBox="0 0 496 496" style="enable-background:new 0 0 496 496;" xml:space="preserve">
<path style="fill:#F9BA48;" d="M288,456H152c-13.256,0-24-10.744-24-24V232h184v200C312,445.256,301.256,456,288,456z"/>
<g>
	<path style="fill:#343433;" d="M392,208h-40v-26.8c18.616-6.608,32-24.344,32-45.2c0-26.472-21.528-48-48-48
		c-5.584,0-10.992,1.008-16.112,2.84C319.92,89.888,320,88.952,320,88c0-48.52-39.48-88-88-88c-43.56,0-79.728,31.84-86.696,73.456
		C135.592,67.496,124.208,64,112,64c-35.288,0-64,28.712-64,64c0,31.376,21.496,50.536,40,54.984V448c0,28.712,19.288,48,48,48h168
		c28.712,0,48-19.288,48-48v-40h40c28.256,0,56-27.744,56-56v-88C448,235.744,420.256,208,392,208z M64,128
		c0-26.472,21.528-48,48-48s48,21.528,48,48h16c0-16.112-6.032-30.808-15.896-42.072C161.216,47.184,193,16,232,16
		c39.704,0,72,32.296,72,72c0,15.72-4.976,30.656-14.4,43.184l12.8,9.608c6.976-9.28,11.92-19.648,14.768-30.64
		C322.672,106.144,329.16,104,336,104c17.648,0,32,14.352,32,32s-14.352,32-32,32h-80v88c0,8.52-7.48,16-16,16s-16-7.48-16-16v-88
		H96C84.512,168,64,154.632,64,128z M432,352c0,19.44-20.56,40-40,40h-56v56c0,19.744-12.256,32-32,32H136
		c-19.744,0-32-12.256-32-32V184h16v248c0,19.44,12.56,32,32,32v-16c-10.616,0-16-5.384-16-16V184h72v72c0,17.344,14.656,32,32,32
		s32-14.656,32-32v-72h32v248c0,10.616-5.384,16-16,16v16c19.44,0,32-12.56,32-32V184h16v40h56c19.44,0,40,20.56,40,40V352z"/>
	<path style="fill:#343433;" d="M384,240h-48v136h48c10.248,0,18.272-2.864,23.848-8.512c5.52-5.592,8.264-13.504,8.152-23.528V272
		C416,251.664,404.336,240,384,240z M400,344.104c0.072,5.608-1.12,9.696-3.536,12.144C394.008,358.736,389.816,360,384,360h-32V256
		h32c11.512,0,16,4.488,16,16V344.104z"/>
	<rect x="168" y="448" style="fill:#343433;" width="72" height="16"/>
	<rect x="256" y="448" style="fill:#343433;" width="16" height="16"/>
	<path style="fill:#343433;" d="M232,48V32c-30.872,0-56,25.128-56,56h16C192,65.944,209.944,48,232,48z"/>
	<path style="fill:#343433;" d="M112,88c-22.056,0-40,17.944-40,40h16c0-13.232,10.768-24,24-24V88z"/>
</g>
<g>
</g>
<g>
</g>
<g>
</g>
<g>
</g>
<g>
</g>
<g>
</g>
<g>
</g>
<g>
</g>
<g>
</g>
<g>
</g>
<g>
</g>
<g>
</g>
<g>
</g>
<g>
</g>
<g>
</g>
</svg>
