<?xml version="1.0" encoding="iso-8859-1"?>
<!-- Generator: Adobe Illustrator 19.0.0, SVG Export Plug-In . SVG Version: 6.00 Build 0)  -->
<svg version="1.1" id="Layer_1" xmlns="http://www.w3.org/2000/svg" xmlns:xlink="http://www.w3.org/1999/xlink" x="0px" y="0px"
	 viewBox="0 0 512 512" style="enable-background:new 0 0 512 512;" xml:space="preserve">
<path style="fill:#F15A24;" d="M200.576,428.137c26.517,0,48.013-22.022,48.013-48.238h-56.014
	c-26.517,0-48.013,21.721-48.013,48.238c0,26.517,21.496,48.238,48.013,48.238h56.015
	C248.589,450.159,227.093,428.137,200.576,428.137z"/>
<path style="fill:#F7931E;" d="M168.568,428.137c0-26.517,21.496-48.238,48.013-48.238h-24.006
	c-26.517,0-48.013,21.721-48.013,48.238c0,26.517,21.496,48.238,48.013,48.238h24.007
	C190.064,476.375,168.568,454.653,168.568,428.137z"/>
<path style="fill:#F15A24;" d="M511.999,155.972h-8.002h-356.07c-76.584,0-141.563,62.674-140.036,139.243
	c1.473,73.858,61.802,132.83,136.009,132.83l0,0c-41.362,0-74.58-34.868-71.864-76.814c2.478-38.279,35.972-67.226,74.331-67.226
	h189.585c22.097,0,40.01-17.913,40.01-40.01l0,0h8.002"/>
<g>
	<path style="fill:#F7931E;" d="M74.08,373.725c-29.973-24.281-49.36-61.047-50.186-102.516
		c-0.461-23.105,5.219-44.898,15.361-64.133c-20.051,24.053-32.029,54.771-31.363,88.138
		C9.364,369.074,69.693,428.046,143.9,428.046C110.232,428.047,81.969,404.942,74.08,373.725z"/>
	<path style="fill:#F7931E;" d="M351.955,259.304H162.37c-30.893,0-58.601,19.373-69.523,46.678
		c13.746-13.678,32.904-21.51,53.519-21.51h189.584c19.124,0,35.063-14.019,39.019-31.954
		C368.453,257.122,360.543,259.304,351.955,259.304z"/>
	<path style="fill:#F7931E;" d="M71.973,356.392c-9.81-18.279-15.629-38.751-16.071-60.895
		c-1.527-76.57,63.452-138.962,140.036-138.962h-48.012c-76.584,0-141.563,62.393-140.036,138.962
		C9.364,369.356,69.693,428.186,143.9,428.186C104.253,428.187,72.181,395.989,71.973,356.392z"/>
	<rect x="271.937" y="155.977" style="fill:#F7931E;" width="16.005" height="88.024"/>
	<rect x="199.915" y="155.977" style="fill:#F7931E;" width="16.005" height="88.024"/>
	<polygon style="fill:#F7931E;" points="135.897,243.996 119.893,251.999 95.887,168.796 111.891,163.975 	"/>
</g>
<rect x="327.704" y="190.089" width="16.778" height="15.73"/>
<rect x="399.013" y="172.262" width="105.914" height="15.73"/>
<rect x="384.331" y="197.43" width="95.427" height="15.73"/>
<path d="M437.199,237.282h17.392v-15.73h-95.427v15.73h40.534c24.854,2.407,43.418,23.036,43.418,48.05
	c0,26.702-21.453,48.426-48.003,48.426h-24.007c-17.574,0-32.075,14.174-32.075,31.596c0,17.421,14.889,31.595,31.667,31.595v-15.73
	c-8.389,0-15.937-6.969-15.937-15.865c0-8.896,7.293-15.866,16.345-15.866h24.007c35.224,0,63.733-28.78,63.733-64.156
	C458.846,266.205,450.505,249.023,437.199,237.282z"/>
<rect x="143.141" y="243.571" width="32.508" height="15.73"/>
<path d="M279.466,266.644V163.837H512v-15.73h-73.189c0.423-0.41,0.849-0.813,1.262-1.237c10.613-10.937,16.207-25.365,15.75-40.624
	c-0.897-29.867-26.854-54.165-57.866-54.165h-74.008c-2.282,0-4.138-1.857-4.138-4.138c0-2.281,1.857-4.138,4.138-4.138h20.005
	v-15.73h-20.005c-10.955,0-19.868,8.913-19.868,19.868s8.913,19.868,19.868,19.868h74.008c22.593,0,41.498,17.454,42.142,38.907
	c0.329,10.97-3.689,21.34-11.314,29.198c-7.629,7.862-17.863,12.192-28.816,12.192H147.926c-39.747,0-78.633,16.414-106.688,45.033
	c-27.333,27.885-41.969,64.191-41.21,102.232c0.754,37.803,16.058,73.168,43.097,99.581c25.319,24.734,58.314,39.06,93.571,40.78
	v0.176h0.564c3.835,27.099,27.172,48.014,55.313,48.014h63.881v-7.865c0-20.389-10.982-38.254-27.335-48.014
	c16.354-9.759,27.335-27.625,27.335-48.013v-7.865h-63.881c-28.026,0-51.28,20.746-55.259,47.683
	c-15.386-1.545-29.484-8.494-40.232-19.961c-12.255-13.074-18.363-30.174-17.198-48.15c2.173-33.572,31.376-59.869,66.481-59.869
	h189.585c26.399,0,47.875-21.476,47.875-47.875h-15.73c0,17.725-14.42,32.145-32.145,32.145H208.158v-62.98h15.73v-15.73h-15.73
	v-33.596h55.579v57.715h-24.119v15.73h24.119v29.362h15.73V266.644z M192.574,387.898h47.378
	c-3.667,18.384-19.929,32.283-39.375,32.283h-27.622l15.663-9.397l-8.092-13.488l-24.831,14.899
	C161.854,397.919,176.065,387.898,192.574,387.898z M180.526,458.796l8.092-13.488l-15.663-9.398h27.623
	c19.446,0,35.708,13.899,39.375,32.284h-47.378c-16.51,0-30.719-10.021-36.879-24.296L180.526,458.796z M15.754,295.06
	c-0.242-12.141,1.296-24.087,4.486-35.566l32.516,32.516l-14.444,14.444l11.123,11.122l14.443-14.443l11.813,11.813
	c-6.346,10.23-10.382,21.961-11.399,34.543H29.107C20.748,332.77,16.138,314.271,15.754,295.06z M54.116,383.702
	c-5.853-5.717-11.081-11.909-15.663-18.485h26.08c1.535,13.593,6.494,26.428,14.55,37.536
	C70.104,397.507,61.721,391.132,54.116,383.702z M85.357,302.365l-22.359-22.358l10.442-10.443l-11.123-11.123l-10.442,10.443
	l-25.807-25.807c6.191-14.186,15.07-27.361,26.404-38.924c11.222-11.448,24.378-20.706,38.668-27.455l4.402,16.51l-13.219,13.219
	l11.123,11.122l6.778-6.78l18.653,69.952C105.931,285.173,94.439,292.684,85.357,302.365z M192.428,179.606h-24.119v15.73h24.119
	v80.807h-46.061c-4.139,0-8.21,0.303-12.194,0.879l-4.724-17.718h6.353v-15.73h-10.547l-19.413-72.8
	c13.515-4.54,27.738-6.936,42.087-6.936h44.5V179.606z"/>
<g>
</g>
<g>
</g>
<g>
</g>
<g>
</g>
<g>
</g>
<g>
</g>
<g>
</g>
<g>
</g>
<g>
</g>
<g>
</g>
<g>
</g>
<g>
</g>
<g>
</g>
<g>
</g>
<g>
</g>
</svg>
