<?xml version="1.0" encoding="iso-8859-1"?>
<!-- Generator: Adobe Illustrator 19.0.0, SVG Export Plug-In . SVG Version: 6.00 Build 0)  -->
<svg version="1.1" id="Capa_1" xmlns="http://www.w3.org/2000/svg" xmlns:xlink="http://www.w3.org/1999/xlink" x="0px" y="0px"
	 viewBox="0 0 512.001 512.001" style="enable-background:new 0 0 512.001 512.001;" xml:space="preserve">
<g>
	<path style="fill:#FFC850;" d="M32.151,159.76c-2.633,0.603-3.923,3.718-2.488,6.006c14.305,22.797,37.349,42.62,66.619,54.744
		c10.607,4.394,21.352,7.49,31.989,9.371l18.535-46.014c-8.745-6.073-18.395-11.383-28.84-15.71
		C88.698,156.034,58.386,153.756,32.151,159.76z"/>
	<path style="fill:#FFC850;" d="M479.848,352.239c2.633-0.603,3.923-3.718,2.488-6.006c-14.305-22.797-37.349-42.62-66.619-54.744
		c-10.607-4.394-21.352-7.49-31.989-9.371l-18.535,46.014c8.745,6.073,18.395,11.383,28.84,15.71
		C423.301,355.966,453.614,358.243,479.848,352.239z"/>
	<path style="fill:#FFC850;" d="M159.76,479.848c0.603,2.633,3.718,3.923,6.006,2.488c22.797-14.305,42.62-37.349,54.744-66.619
		c4.394-10.607,7.49-21.352,9.371-31.989l-46.014-18.535c-6.073,8.745-11.383,18.395-15.71,28.84
		C156.034,423.301,153.756,453.614,159.76,479.848z"/>
	<path style="fill:#FFC850;" d="M352.239,32.151c-0.603-2.633-3.718-3.923-6.006-2.488c-22.797,14.305-42.62,37.349-54.744,66.619
		c-4.394,10.607-7.49,21.352-9.371,31.989l46.014,18.535c6.073-8.745,11.383-18.395,15.71-28.84
		C355.966,88.698,358.243,58.386,352.239,32.151z"/>
	<path style="fill:#FFC850;" d="M29.663,346.233c-1.436,2.288-0.145,5.403,2.488,6.006c26.235,6.005,56.547,3.727,85.817-8.397
		c10.607-4.394,20.394-9.802,29.246-15.994l-19.431-45.644c-10.478,1.889-21.056,4.958-31.501,9.284
		C67.013,303.613,43.968,323.437,29.663,346.233z"/>
	<path style="fill:#FFC850;" d="M482.336,165.767c1.436-2.288,0.145-5.403-2.488-6.006c-26.235-6.005-56.547-3.727-85.817,8.397
		c-10.607,4.394-20.394,9.802-29.246,15.994l19.431,45.644c10.478-1.889,21.056-4.958,31.501-9.284
		C444.987,208.387,468.031,188.563,482.336,165.767z"/>
	<path style="fill:#FFC850;" d="M346.233,482.336c2.288,1.436,5.403,0.145,6.006-2.488c6.005-26.235,3.727-56.547-8.397-85.817
		c-4.394-10.607-9.802-20.394-15.994-29.246l-45.644,19.431c1.889,10.478,4.958,21.056,9.284,31.501
		C303.613,444.987,323.437,468.031,346.233,482.336z"/>
	<path style="fill:#FFC850;" d="M165.767,29.663c-2.288-1.436-5.403-0.145-6.006,2.488c-6.005,26.235-3.727,56.547,8.397,85.817
		c4.394,10.607,9.802,20.394,15.994,29.246l45.644-19.431c-1.889-10.478-4.958-21.056-9.284-31.501
		C208.387,67.013,188.563,43.968,165.767,29.663z"/>
</g>
<g>
	<path style="fill:#FFDC64;" d="M86.02,81.423c-2.663-0.451-5.048,1.934-4.597,4.597c4.492,26.536,18.196,53.669,40.598,76.071
		c8.119,8.119,16.86,15.091,25.968,20.9l34.734-35.419c-5.755-8.958-12.638-17.556-20.632-25.55
		C139.689,99.619,112.555,85.915,86.02,81.423z"/>
	<path style="fill:#FFDC64;" d="M425.979,430.577c2.663,0.451,5.048-1.934,4.597-4.597c-4.492-26.536-18.196-53.669-40.598-76.071
		c-8.119-8.119-16.86-15.091-25.968-20.9l-34.734,35.419c5.755,8.958,12.638,17.556,20.632,25.55
		C372.311,412.38,399.444,426.084,425.979,430.577z"/>
	<path style="fill:#FFDC64;" d="M81.423,425.979c-0.451,2.663,1.934,5.048,4.597,4.597c26.536-4.492,53.669-18.196,76.071-40.598
		c8.119-8.119,15.091-16.86,20.9-25.968l-35.419-34.734c-8.958,5.755-17.556,12.638-25.55,20.632
		C99.619,372.311,85.915,399.444,81.423,425.979z"/>
	<path style="fill:#FFDC64;" d="M430.577,86.02c0.451-2.663-1.934-5.048-4.597-4.597c-26.536,4.492-53.669,18.196-76.071,40.598
		c-8.119,8.119-15.091,16.86-20.9,25.968l35.419,34.734c8.958-5.755,17.556-12.638,25.55-20.632
		C412.38,139.689,426.084,112.555,430.577,86.02z"/>
	<path style="fill:#FFDC64;" d="M12.361,252.749c-2.202,1.564-2.202,4.937,0,6.501c21.94,15.587,50.816,25.083,82.497,25.083
		c11.481,0,22.593-1.251,33.141-3.584l-0.484-49.605c-10.403-2.265-21.351-3.478-32.656-3.478
		C63.178,227.667,34.301,237.163,12.361,252.749z"/>
	<path style="fill:#FFDC64;" d="M499.638,259.25c2.202-1.564,2.202-4.937,0-6.501c-21.94-15.587-50.816-25.083-82.497-25.083
		c-11.481,0-22.593,1.251-33.141,3.584l0.484,49.605c10.403,2.265,21.351,3.478,32.656,3.478
		C448.822,284.333,477.698,274.837,499.638,259.25z"/>
	<path style="fill:#FFDC64;" d="M252.749,499.638c1.564,2.202,4.937,2.202,6.501,0c15.587-21.94,25.083-50.816,25.083-82.497
		c0-11.481-1.251-22.593-3.584-33.141l-49.605,0.484c-2.265,10.403-3.478,21.351-3.478,32.656
		C227.667,448.822,237.163,477.698,252.749,499.638z"/>
	<path style="fill:#FFDC64;" d="M259.25,12.361c-1.564-2.202-4.937-2.202-6.501,0c-15.587,21.94-25.083,50.816-25.083,82.497
		c0,11.481,1.251,22.593,3.584,33.141l49.605-0.484c2.265-10.403,3.478-21.351,3.478-32.656
		C284.333,63.178,274.837,34.301,259.25,12.361z"/>
</g>
<circle style="fill:#6E555E;" cx="256" cy="256" r="136"/>
<path style="fill:#5F4B55;" d="M356,256c0,6.411-8.552,11.9-9.751,17.959c-1.235,6.244,4.543,14.578,2.161,20.323
	c-2.424,5.845-12.427,7.641-15.906,12.836c-3.505,5.234-1.358,15.158-5.796,19.596c-4.438,4.438-14.362,2.29-19.596,5.794
	c-5.193,3.477-6.988,13.479-12.831,15.902c-5.744,2.382-14.078-3.396-20.321-2.161C267.9,347.448,262.411,356,256,356
	c-6.411,0-11.9-8.552-17.959-9.751c-6.244-1.235-14.578,4.543-20.323,2.161c-5.845-2.424-7.641-12.427-12.836-15.906
	c-5.234-3.505-15.158-1.358-19.596-5.796c-4.438-4.438-2.29-14.362-5.794-19.596c-3.477-5.193-13.479-6.988-15.902-12.831
	c-2.382-5.744,3.396-14.078,2.161-20.321C164.552,267.9,156,262.411,156,256c0-6.411,8.552-11.9,9.751-17.959
	c1.235-6.244-4.543-14.578-2.161-20.323c2.424-5.845,12.427-7.641,15.906-12.836c3.505-5.234,1.358-15.158,5.796-19.596
	c4.438-4.438,14.362-2.29,19.596-5.794c5.193-3.477,6.988-13.479,12.831-15.902c5.744-2.382,14.078,3.396,20.321,2.161
	C244.1,164.552,249.589,156,256,156c6.411,0,11.9,8.552,17.959,9.751c6.244,1.235,14.578-4.543,20.323-2.161
	c5.845,2.424,7.641,12.427,12.836,15.906c5.234,3.505,15.158,1.358,19.596,5.796c4.438,4.438,2.29,14.362,5.794,19.596
	c3.477,5.193,13.479,6.988,15.902,12.831c2.382,5.744-3.396,14.078-2.161,20.321C347.448,244.1,356,249.589,356,256z"/>
<circle style="fill:#6E555E;" cx="256" cy="256" r="32"/>
<path d="M509.353,250.281c-20.468-17.367-46.723-27.763-74.808-29.796c25.168-12.626,45.447-32.277,57.711-56.156
	c1.006-1.959,1.101-4.262,0.258-6.296s-2.538-3.596-4.634-4.27c-25.557-8.214-53.791-7.769-80.516,1.1
	c18.421-21.297,29.636-47.213,31.828-73.966c0.18-2.195-0.614-4.358-2.172-5.916c-1.558-1.557-3.723-2.353-5.916-2.172
	c-26.753,2.192-52.668,13.407-73.966,31.828c8.868-26.724,9.312-54.959,1.1-80.515c-0.674-2.097-2.236-3.792-4.271-4.635
	s-4.338-0.75-6.296,0.258c-23.878,12.263-43.529,32.542-56.156,57.71c-2.034-28.084-12.429-54.34-29.796-74.808
	C260.294,0.968,258.203,0,256,0s-4.294,0.968-5.719,2.647c-17.367,20.468-27.763,46.723-29.796,74.808
	c-12.626-25.168-32.277-45.447-56.156-57.711c-1.959-1.007-4.261-1.101-6.296-0.258s-3.596,2.538-4.27,4.634
	c-8.213,25.556-7.769,53.791,1.099,80.516C133.565,86.215,107.65,75,80.896,72.808c-2.195-0.179-4.358,0.615-5.916,2.172
	s-2.352,3.721-2.172,5.916c2.192,26.753,13.407,52.668,31.828,73.966c-26.724-8.868-54.959-9.312-80.515-1.1
	c-2.097,0.674-3.792,2.236-4.635,4.271s-0.749,4.337,0.258,6.296c12.263,23.878,32.542,43.529,57.71,56.156
	c-28.084,2.034-54.34,12.429-74.808,29.796C0.968,251.706,0,253.797,0,256s0.968,4.293,2.647,5.719
	c20.468,17.367,46.723,27.763,74.808,29.796c-25.168,12.626-45.447,32.277-57.711,56.156c-1.006,1.959-1.101,4.262-0.258,6.296
	s2.538,3.596,4.634,4.27c12.208,3.923,25.023,5.873,37.997,5.873c14.183,0,28.553-2.331,42.51-6.961
	C86.212,378.444,75,404.355,72.808,431.104c-0.18,2.195,0.614,4.358,2.172,5.916c1.412,1.412,3.322,2.197,5.303,2.197
	c0.204,0,0.408-0.008,0.613-0.025c26.753-2.192,52.668-13.407,73.966-31.828c-8.868,26.724-9.312,54.959-1.1,80.515
	c0.674,2.097,2.236,3.792,4.271,4.635c0.921,0.381,1.896,0.571,2.87,0.571c1.178,0,2.354-0.277,3.426-0.829
	c23.878-12.263,43.529-32.542,56.156-57.71c2.034,28.084,12.429,54.34,29.796,74.808c1.425,1.679,3.516,2.647,5.719,2.647
	s4.294-0.968,5.719-2.647c17.367-20.468,27.763-46.723,29.796-74.808c12.626,25.168,32.277,45.447,56.156,57.711
	c1.073,0.551,2.248,0.829,3.426,0.829c0.974,0,1.949-0.189,2.87-0.571c2.035-0.843,3.596-2.538,4.27-4.634
	c8.213-25.556,7.769-53.791-1.099-80.516c21.297,18.421,47.212,29.636,73.966,31.828c0.205,0.017,0.409,0.025,0.613,0.025
	c1.98,0,3.891-0.785,5.303-2.197c1.558-1.557,2.352-3.721,2.172-5.916c-2.192-26.748-13.403-52.659-31.818-73.955
	c13.956,4.63,28.324,6.961,42.508,6.961c12.972,0,25.791-1.95,37.997-5.872c2.097-0.674,3.792-2.236,4.635-4.271
	s0.749-4.337-0.258-6.296c-12.263-23.878-32.542-43.529-57.71-56.156c28.084-2.034,54.34-12.429,74.808-29.796
	c1.679-1.425,2.647-3.516,2.647-5.719S511.032,251.707,509.353,250.281z M474.283,165.584
	c-12.507,19.823-31.652,35.722-54.764,45.295c-8.042,3.331-16.373,5.797-24.803,7.361c-3.216-11.797-7.924-23.084-13.95-33.617
	c7.072-4.861,14.713-9.01,22.764-12.344C426.644,162.706,451.422,160.41,474.283,165.584z M423.066,88.934
	c-3.969,23.101-15.572,45.115-33.261,62.805c-6.158,6.157-12.915,11.625-20.109,16.298c-2.187-2.83-4.478-5.584-6.877-8.25
	l17.516-17.516c2.929-2.929,2.929-7.678,0-10.606c-2.929-2.929-7.678-2.929-10.606,0l-17.516,17.516
	c-2.653-2.392-5.405-4.688-8.247-6.889c4.67-7.188,10.137-13.938,16.294-20.096C377.952,104.505,399.966,92.901,423.066,88.934z
	 M346.416,37.717c5.174,22.861,2.878,47.641-6.695,70.752c-3.329,8.038-7.474,15.669-12.326,22.732
	c-0.581-0.333-1.152-0.678-1.739-1.003c-3.623-2.009-8.188-0.703-10.197,2.919c-2.01,3.622-0.703,8.188,2.919,10.197
	c40.954,22.722,66.396,65.901,66.396,112.686c0,71.006-57.768,128.774-128.774,128.774S127.226,327.006,127.226,256
	S184.994,127.226,256,127.226c12.114,0,24.1,1.679,35.626,4.99c3.981,1.143,8.136-1.157,9.279-5.138
	c1.144-3.981-1.157-8.136-5.138-9.279c-0.666-0.191-1.339-0.357-2.007-0.538c1.564-8.422,4.031-16.744,7.36-24.78
	C310.694,69.368,326.592,50.224,346.416,37.717z M256,19.732c13.529,19.141,20.891,42.913,20.891,67.929
	c0,8.705-0.911,17.345-2.691,25.729c-3.548-0.449-7.116-0.765-10.699-0.949v-24.78c0-4.142-3.358-7.5-7.5-7.5s-7.5,3.358-7.5,7.5
	v24.759c-3.605,0.186-7.176,0.505-10.707,0.954c-1.778-8.38-2.684-17.013-2.684-25.713C235.109,62.644,242.471,38.873,256,19.732z
	 M165.584,37.717c19.823,12.507,35.722,31.652,45.295,54.764c3.329,8.037,5.794,16.363,7.358,24.788
	c-11.884,3.238-23.163,7.958-33.617,13.961c-4.86-7.071-9.008-14.711-12.341-22.76C162.706,85.357,160.41,60.578,165.584,37.717z
	 M151.738,122.194c6.168,6.168,11.644,12.938,16.321,20.145c-2.829,2.194-5.575,4.489-8.231,6.883l-17.558-17.558
	c-2.929-2.929-7.678-2.929-10.606,0c-2.929,2.929-2.929,7.678,0,10.606l17.558,17.558c-2.395,2.656-4.69,5.404-6.885,8.234
	c-7.205-4.677-13.972-10.154-20.143-16.324c-17.689-17.69-29.293-39.705-33.261-62.805
	C112.034,92.902,134.049,104.505,151.738,122.194z M37.717,165.584c22.862-5.174,47.641-2.878,70.752,6.695
	c8.049,3.333,15.688,7.485,22.759,12.344c-6.004,10.454-10.723,21.733-13.961,33.617c-8.425-1.564-16.748-4.031-24.787-7.361
	C69.368,201.306,50.224,185.408,37.717,165.584z M87.661,235.109c8.699,0,17.333,0.909,25.713,2.688
	c-0.448,3.53-0.767,7.099-0.953,10.703h-24.76c-4.142,0-7.5,3.358-7.5,7.5s3.358,7.5,7.5,7.5h24.759
	c0.186,3.605,0.505,7.176,0.954,10.707c-8.38,1.778-17.013,2.684-25.713,2.684c-25.017,0-48.788-7.362-67.929-20.891
	C38.873,242.471,62.645,235.109,87.661,235.109z M37.717,346.416c12.507-19.823,31.652-35.722,54.764-45.295
	c8.037-3.329,16.363-5.794,24.788-7.358c3.238,11.884,7.958,23.163,13.961,33.617c-7.071,4.86-14.711,9.008-22.76,12.341
	C85.357,349.294,60.579,351.59,37.717,346.416z M88.934,423.066c3.969-23.101,15.572-45.115,33.261-62.805
	c6.168-6.168,12.938-11.644,20.145-16.321c2.194,2.829,4.489,5.575,6.883,8.231l-17.558,17.558c-2.929,2.929-2.929,7.678,0,10.606
	c1.464,1.464,3.384,2.197,5.303,2.197s3.839-0.732,5.303-2.197l17.558-17.558c2.656,2.395,5.404,4.69,8.234,6.885
	c-4.677,7.205-10.154,13.972-16.324,20.143C134.048,407.495,112.034,419.099,88.934,423.066z M165.584,474.283
	c-5.174-22.861-2.878-47.641,6.695-70.752c3.333-8.049,7.485-15.688,12.344-22.759c10.454,6.004,21.733,10.723,33.617,13.961
	c-1.564,8.425-4.031,16.748-7.361,24.787C201.306,442.632,185.408,461.776,165.584,474.283z M256,492.268
	c-13.529-19.141-20.891-42.913-20.891-67.929c0-8.699,0.909-17.333,2.688-25.713c3.53,0.448,7.099,0.767,10.703,0.953v24.759
	c0,4.142,3.358,7.5,7.5,7.5s7.5-3.358,7.5-7.5V399.58c3.605-0.186,7.176-0.505,10.707-0.954c1.778,8.38,2.684,17.013,2.684,25.713
	C276.891,449.356,269.529,473.127,256,492.268z M346.416,474.283c-19.823-12.507-35.722-31.652-45.295-54.764
	c-3.329-8.037-5.794-16.363-7.358-24.788c11.884-3.238,23.163-7.958,33.617-13.961c4.86,7.071,9.008,14.711,12.341,22.76
	C349.294,426.643,351.59,451.422,346.416,474.283z M360.262,389.806c-6.168-6.168-11.644-12.938-16.321-20.145
	c2.829-2.194,5.575-4.489,8.231-6.883l17.558,17.558c1.464,1.464,3.384,2.197,5.303,2.197s3.839-0.732,5.303-2.197
	c2.929-2.929,2.929-7.678,0-10.606l-17.558-17.558c2.395-2.656,4.69-5.404,6.885-8.234c7.205,4.677,13.972,10.154,20.143,16.324
	c17.689,17.69,29.293,39.705,33.261,62.805C399.966,419.098,377.951,407.495,360.262,389.806z M474.283,346.416
	c-22.862,5.174-47.64,2.878-70.752-6.695c-8.049-3.333-15.688-7.485-22.759-12.344c6.004-10.454,10.723-21.733,13.961-33.617
	c8.425,1.564,16.748,4.031,24.787,7.361C442.632,310.694,461.776,326.592,474.283,346.416z M424.339,276.891
	c-8.699,0-17.333-0.909-25.713-2.688c0.448-3.53,0.767-7.099,0.953-10.703h24.759c4.142,0,7.5-3.358,7.5-7.5s-3.358-7.5-7.5-7.5
	h-24.781c-0.188-3.593-0.504-7.162-0.956-10.702c8.387-1.781,17.028-2.689,25.737-2.689c25.017,0,48.788,7.362,67.929,20.891
	C473.127,269.529,449.355,276.891,424.339,276.891z"/>
<path d="M290.374,300.981c1.464,1.464,3.384,2.197,5.303,2.197s3.839-0.732,5.303-2.197c2.929-2.929,2.929-7.678,0-10.606
	L187.614,177.009c-2.929-2.929-7.678-2.929-10.606,0c-2.929,2.929-2.929,7.678,0,10.606L290.374,300.981z"/>
<path d="M323.654,313.049c-2.929-2.93-7.678-2.929-10.606,0c-2.929,2.929-2.929,7.678,0,10.606l11.335,11.334
	c1.464,1.465,3.384,2.197,5.303,2.197s3.839-0.732,5.303-2.197c2.929-2.929,2.929-7.678,0-10.606L323.654,313.049z"/>
<path d="M216.686,181.947c1.464,1.464,3.384,2.197,5.303,2.197s3.839-0.732,5.303-2.197c2.929-2.929,2.929-7.678,0-10.606
	l-13.479-13.479c-2.929-2.929-7.678-2.929-10.606,0c-2.929,2.929-2.929,7.678,0,10.606L216.686,181.947z"/>
<path d="M249.965,194.014c-2.929-2.929-7.678-2.929-10.606,0c-2.929,2.929-2.929,7.678,0,10.606l104.17,104.17
	c1.464,1.464,3.384,2.197,5.303,2.197s3.839-0.732,5.303-2.197c2.929-2.929,2.929-7.678,0-10.606L249.965,194.014z"/>
<path d="M238.164,147.473c-2.929,2.929-2.929,7.678,0,10.606l115.754,115.755c1.464,1.465,3.384,2.197,5.303,2.197
	s3.839-0.732,5.303-2.197c2.929-2.929,2.929-7.678,0-10.606L248.771,147.473C245.842,144.543,241.093,144.544,238.164,147.473z"/>
<path d="M290.354,154.317c-2.929,2.929-2.929,7.678,0,10.606l11.355,11.354c1.464,1.465,3.384,2.197,5.303,2.197
	s3.839-0.732,5.303-2.197c2.929-2.929,2.929-7.678,0-10.606l-11.355-11.354C298.032,151.387,293.283,151.388,290.354,154.317z"/>
<path d="M347.075,221.644c1.464,1.464,3.384,2.197,5.303,2.197s3.839-0.732,5.303-2.197c2.929-2.929,2.929-7.678,0-10.606
	l-22.691-22.691c-2.929-2.929-7.678-2.929-10.606,0c-2.929,2.929-2.929,7.678,0,10.606L347.075,221.644z"/>
<path d="M168.47,203.204c-2.929-2.929-7.678-2.929-10.606,0c-2.929,2.929-2.929,7.678,0,10.606l140.322,140.322
	c1.464,1.464,3.384,2.197,5.303,2.197s3.839-0.732,5.303-2.197c2.929-2.929,2.929-7.678,0-10.606L168.47,203.204z"/>
<path d="M210.652,308.845c1.919,0,3.839-0.732,5.303-2.196c2.929-2.929,2.929-7.678,0-10.607l-57.875-57.881
	c-2.93-2.928-7.678-2.929-10.607,0s-2.929,7.678,0,10.607l57.875,57.881C206.813,308.113,208.733,308.845,210.652,308.845z"/>
<path d="M238.633,318.713c-2.929-2.929-7.678-2.929-10.606,0c-2.929,2.929-2.929,7.678,0,10.606l35.202,35.202
	c1.464,1.464,3.384,2.197,5.303,2.197s3.839-0.732,5.303-2.197c2.929-2.929,2.929-7.678,0-10.606L238.633,318.713z"/>
<path d="M164.924,290.351c-2.928-2.929-7.677-2.929-10.606,0s-2.929,7.678,0,10.606l56.72,56.721
	c1.464,1.465,3.384,2.197,5.303,2.197c1.919,0,3.839-0.732,5.303-2.197c2.929-2.929,2.929-7.678,0-10.606L164.924,290.351z"/>
<g>
</g>
<g>
</g>
<g>
</g>
<g>
</g>
<g>
</g>
<g>
</g>
<g>
</g>
<g>
</g>
<g>
</g>
<g>
</g>
<g>
</g>
<g>
</g>
<g>
</g>
<g>
</g>
<g>
</g>
</svg>
