<?xml version="1.0" encoding="iso-8859-1"?>
<!-- Generator: Adobe Illustrator 19.0.0, SVG Export Plug-In . SVG Version: 6.00 Build 0)  -->
<svg version="1.1" id="Capa_1" xmlns="http://www.w3.org/2000/svg" xmlns:xlink="http://www.w3.org/1999/xlink" x="0px" y="0px"
	 viewBox="0 0 512 512" style="enable-background:new 0 0 512 512;" xml:space="preserve">
<g>
	<path style="fill:#ACD670;" d="M94.046,405.22c38.725,12.92,35.934,68.053,35.934,68.779l0.007,0.008l0.003,0.004l0,0l-0.006-0.007
		c-0.193,0.005-45.722,1.437-68.84-24.396c-23.103-25.831-15.857-70.141-15.811-70.331l-0.012-0.013
		C45.322,379.264,57.748,393.11,94.046,405.22z"/>
	<path style="fill:#ACD670;" d="M214.679,379.264l-0.012,0.013c0.046,0.19,7.292,44.5-15.811,70.331
		c-23.117,25.834-68.646,24.401-68.84,24.396l-0.006,0.007l0,0l0.003-0.004l0.007-0.008c0-0.726-2.791-55.86,35.934-68.779
		C202.252,393.11,214.679,379.264,214.679,379.264z"/>
	<path style="fill:#ACD670;" d="M317.44,341.178c47.994,16.012,44.535,84.342,44.535,85.242l0.008,0.01l0.004,0.005l0,0
		l-0.007-0.009c-0.24,0.006-56.666,1.781-85.317-30.235c-28.633-32.014-19.653-86.93-19.595-87.165l-0.014-0.016
		C257.054,309.01,272.454,326.17,317.44,341.178z"/>
	<path style="fill:#ACD670;" d="M466.947,309.01l-0.014,0.016c0.057,0.235,9.037,55.151-19.595,87.165
		c-28.651,32.017-85.077,30.242-85.317,30.235l-0.008,0.009l0,0l0.004-0.005l0.008-0.01c0-0.9-3.459-69.23,44.535-85.242
		C451.546,326.17,466.947,309.01,466.947,309.01z"/>
</g>
<path style="fill:#FFC943;" d="M245.974,269.998c-0.076-0.116-21.124-25.391-46.869-25.5c-0.044,0-0.088,0-0.131,0
	c-2.778-0.002-4.141-3.291-2.178-5.256c0.031-0.031,0.062-0.062,0.093-0.093c18.127-18.281,15.138-51.037,15.11-51.172
	c-0.136-0.028-32.891-3.017-51.172,15.11c-0.031,0.031-0.062,0.062-0.093,0.093c-1.965,1.963-5.255,0.6-5.256-2.178
	c0-0.044,0-0.088,0-0.131c-0.109-25.744-25.384-46.792-25.5-46.869c-0.116,0.076-25.391,21.124-25.5,46.869c0,0.029,0,0.058,0,0.087
	c-0.005,2.775-3.318,4.184-5.269,2.21l-0.053-0.054c-18.135-18.28-51.044-15.151-51.189-15.138l-0.005-0.005l0.007,0.007
	l-0.004-0.004l-0.012,0.012l-0.003-0.003l0.003,0.003l0,0l0.002,0.002c-0.013,0.145-3.141,33.054,15.138,51.189l0.054,0.054
	c1.963,1.941,0.578,5.285-2.183,5.269h-0.076c-25.749-0.102-46.807,25.38-46.901,25.492h-0.003l0,0H13.98h0.004v0.017h0.006h-0.01
	h0.007c0.093,0.112,21.151,25.594,46.901,25.492h0.076c2.761-0.016,4.146,3.329,2.183,5.269l-0.054,0.054
	c-18.28,18.135-15.151,51.044-15.138,51.189l-0.002,0.002h-0.001l0,0l-0.003,0.003l0.003-0.003l0.012,0.012l-0.003,0.003
	l0.003-0.003l0,0l0.002-0.002c0.145,0.013,33.054,3.141,51.189-15.138l0.054-0.054c1.941-1.963,5.285-0.578,5.269,2.183v0.076
	c-0.102,25.749,25.38,46.807,25.492,46.901v-0.003v0.003l0,0v0.003h0.017v-0.003l0,0v-0.003v0.003
	c0.112-0.094,25.594-21.151,25.492-46.901v-0.076c-0.016-2.775,3.323-4.122,5.289-2.163c0.021,0.021,0.041,0.041,0.062,0.061
	c18.281,18.127,51.037,15.138,51.172,15.11c0.028-0.136,3.017-32.891-15.11-51.172c-0.031-0.031-0.062-0.062-0.093-0.093
	c-1.963-1.965-0.6-5.255,2.178-5.256c0.044,0,0.088,0,0.131,0C224.85,295.389,245.898,270.113,245.974,269.998z"/>
<circle style="fill:#CE4A30;" cx="129.95" cy="268.74" r="47.643"/>
<path style="fill:#FFC943;" d="M502,150c-0.092-0.14-25.495-30.645-56.567-30.777c-0.053,0-0.106,0-0.159,0
	c-3.353-0.002-4.998-3.972-2.628-6.344c0.037-0.038,0.075-0.075,0.112-0.113c21.878-22.064,18.27-61.597,18.236-61.761
	c-0.164-0.034-39.697-3.641-61.761,18.236c-0.038,0.037-0.075,0.075-0.113,0.112c-2.372,2.369-6.342,0.724-6.344-2.628
	c0-0.053,0-0.106,0-0.158C392.645,35.495,362.14,10.092,362,10c-0.14,0.092-30.645,25.495-30.777,56.567c0,0.035,0,0.07,0,0.105
	c-0.006,3.349-4.005,5.049-6.359,2.668l-0.064-0.065c-21.888-22.062-61.606-18.286-61.781-18.271l-0.006-0.006l0.008,0.009
	l-0.005-0.005l-0.014,0.014l-0.003-0.003l0.003,0.003l0,0l0.003,0.002c-0.016,0.175-3.791,39.893,18.271,61.781l0.065,0.065
	c2.37,2.342,0.698,6.379-2.634,6.36l-0.092-0.001c-31.077-0.123-56.493,30.632-56.605,30.767h-0.004l0,0h-0.005h0.005v0.02h0.007
	h-0.012h0.008c0.113,0.135,25.528,30.89,56.605,30.767l0.092-0.001c3.332-0.019,5.004,4.017,2.634,6.36l-0.065,0.065
	c-22.062,21.888-18.286,61.606-18.271,61.781l-0.002,0.002l-0.001,0.001l0,0l-0.003,0.003l0.003-0.003l0.014,0.014l-0.003,0.003
	l0.003-0.003l0,0l0.002-0.003c0.175,0.016,39.893,3.792,61.781-18.271l0.065-0.065c2.342-2.369,6.379-0.698,6.36,2.634l-0.001,0.092
	c-0.123,31.077,30.631,56.492,30.767,56.605v-0.004v0.004l0,0v0.004h0.02v-0.004l0,0v-0.004v0.004
	c0.135-0.113,30.89-25.528,30.767-56.605l-0.001-0.091c-0.019-3.349,4.011-4.975,6.383-2.611c0.025,0.025,0.05,0.049,0.075,0.074
	c22.064,21.878,61.597,18.27,61.761,18.236c0.034-0.164,3.641-39.697-18.236-61.761c-0.037-0.038-0.075-0.075-0.112-0.113
	c-2.37-2.372-0.724-6.342,2.628-6.344c0.053,0,0.106,0,0.159,0C476.505,180.645,501.908,150.14,502,150z"/>
<circle style="fill:#CE4A30;" cx="361.97" cy="148.48" r="57.5"/>
<path d="M157.648,296.498l-0.093,0.092c-3.916,3.895-3.932,10.227-0.038,14.142c1.955,1.965,4.521,2.948,7.09,2.948
	c2.55,0,5.102-0.97,7.052-2.91l0.093-0.092c3.916-3.895,3.932-10.227,0.038-14.142C167.894,292.619,161.563,292.604,157.648,296.498
	z"/>
<path d="M150.639,314.548c-1.222-5.386-6.577-8.76-11.965-7.539c-13.171,2.989-26.72-0.917-36.25-10.447
	c-9.089-9.088-13.114-22.073-10.767-34.732c2.402-12.956,11.135-23.661,23.96-29.37c9.101-4.051,19.532-4.076,28.619-0.067
	c22.146,9.769,27.657,31.119,23.405,46.823c-1.443,5.331,1.708,10.823,7.039,12.266c5.335,1.446,10.823-1.708,12.266-7.039
	c3.618-13.363,2.429-27.627-3.348-40.166c-6.197-13.45-17.017-23.888-31.291-30.183c-14.238-6.281-30.576-6.246-44.823,0.095
	c-18.935,8.428-31.871,24.464-35.492,43.996c-3.548,19.139,2.542,38.772,16.289,52.521c11.229,11.229,26.143,17.297,41.597,17.297
	c4.388,0,8.82-0.49,13.223-1.489C148.487,325.292,151.862,319.934,150.639,314.548z"/>
<path d="M395.444,182.085l-0.108,0.107c-3.923,3.888-3.952,10.219-0.064,14.142c1.956,1.973,4.529,2.961,7.104,2.961
	c2.544,0,5.089-0.965,7.039-2.897l0.108-0.107c3.923-3.888,3.952-10.219,0.064-14.142
	C405.698,178.227,399.367,178.198,395.444,182.085z"/>
<path d="M384.454,202.345c-1.222-5.386-6.575-8.76-11.965-7.539c-15.927,3.615-32.314-1.109-43.839-12.635
	c-10.992-10.992-15.86-26.694-13.022-42.003c2.904-15.664,13.443-28.597,28.914-35.483c11.047-4.916,23.709-4.946,34.739-0.081
	c26.737,11.793,33.382,37.601,28.241,56.588c-1.443,5.331,1.708,10.822,7.039,12.266c5.333,1.447,10.823-1.708,12.266-7.039
	c4.119-15.213,2.766-31.453-3.811-45.727c-7.057-15.317-19.39-27.208-35.664-34.386c-16.183-7.138-34.751-7.099-50.943,0.108
	c-21.582,9.606-36.323,27.871-40.446,50.109c-4.039,21.788,2.894,44.14,18.544,59.791c12.783,12.784,29.761,19.692,47.354,19.691
	c4.995,0,10.042-0.557,15.054-1.695C382.301,213.088,385.677,207.73,384.454,202.345z"/>
<path d="M10.137,492H10c-5.523,0-10,4.477-10,10s4.477,10,10,10h0.137c5.523,0,10-4.477,10-10S15.66,492,10.137,492z"/>
<path d="M502,492H372v-55.816c18.828-1.102,58.925-6.657,82.791-33.327c29.222-32.673,23.598-84.353,22.138-94.45
	c-0.154-2.551-1.281-5.043-3.342-6.874c-4.114-3.653-10.408-3.297-14.083,0.798c-0.136,0.152-14.789,15.576-56.109,29.362
	c-12.605,4.206-23.17,11.862-31.395,22.614v-59.833c7.794-7.321,24.912-25.632,29.582-49.018
	c26.063,17.191,61.062,13.411,61.425,13.334c3.917-0.804,6.979-3.866,7.784-7.784c0.075-0.366,3.858-35.37-13.385-61.479
	c30.67-6.236,52.746-33.724,52.951-34.035c2.191-3.334,2.191-7.652,0-10.986c-0.205-0.312-22.265-27.774-52.941-34.027
	c17.24-26.069,13.45-61.121,13.375-61.486c-0.804-3.917-3.866-6.979-7.784-7.784c-0.365-0.074-35.37-3.858-61.479,13.385
	c-6.236-30.67-33.724-52.746-34.035-52.951c-3.335-2.191-7.651-2.191-10.986,0c-0.312,0.205-27.732,22.231-34.013,52.871
	c-23.738-15.845-54.946-13.938-60.059-13.498c-2.05,0.119-4.07,0.866-5.748,2.241c-0.261,0.213-0.515,0.442-0.758,0.686
	c-1.803,1.803-2.773,4.124-2.911,6.484c-0.441,5.172-2.327,36.3,13.457,60.005c-27.905,5.604-48.582,28.925-51.924,32.889
	c-1.584,1.77-2.547,4.106-2.547,6.669c0,0.288,0.012,0.573,0.036,0.855c0.18,2.184,1.063,4.168,2.422,5.728
	c3.119,3.715,23.895,27.351,52.013,32.995c-15.759,23.668-13.904,54.725-13.461,59.957c0.128,2.376,1.1,4.716,2.916,6.532
	c0.002,0.002,0.005,0.005,0.007,0.007s0.005,0.005,0.007,0.007c1.803,1.803,4.122,2.773,6.482,2.911
	c5.169,0.44,36.299,2.33,60.008-13.457c4.69,23.364,21.797,41.653,29.567,48.95v59.83c-8.225-10.752-18.79-18.408-31.395-22.614l0,0
	c-41.227-13.754-56.027-29.276-56.108-29.362c-3.675-4.095-9.96-4.444-14.076-0.79c-2.018,1.792-3.138,4.222-3.327,6.719
	c-1.425,9.734-7.25,61.763,22.118,94.599c23.867,26.671,63.968,32.225,82.789,33.326V492H140.009v-8.328
	c16.122-1.176,47.368-6.24,66.301-27.397c23.579-26.362,19.737-67.457,18.401-77.238c-0.032-2.783-1.198-5.533-3.461-7.466
	c-4.181-3.57-10.379-3.181-13.974,0.968c-0.771,0.785-12.775,12.616-44.486,23.196c-8.861,2.956-16.493,7.961-22.781,14.793v-16.089
	c6.746-6.428,20.337-21.287,24.865-40.34c22.589,13.745,51.674,10.613,51.986,10.549c3.922-0.803,6.986-3.868,7.79-7.79
	c0.064-0.312,3.203-29.449-10.57-52.03c25.813-6.226,44.114-29.087,44.288-29.354c2.181-3.332,2.177-7.64-0.01-10.968
	c-0.175-0.266-18.499-23.087-44.288-29.327c13.796-22.607,10.644-51.736,10.579-52.048c-0.803-3.907-3.851-6.963-7.755-7.776
	c-0.311-0.064-29.389-3.273-52.065,10.574c-6.227-25.773-29.069-44.114-29.335-44.289c-3.333-2.19-7.65-2.19-10.983,0
	c-0.266,0.174-23.064,18.48-29.317,44.213c-20.493-12.625-46.301-11.067-50.638-10.696c-2.108,0.126-4.184,0.918-5.887,2.374
	c-0.204,0.173-0.402,0.356-0.595,0.549c-1.793,1.793-2.763,4.099-2.909,6.446c-0.372,4.376-1.92,30.091,10.672,50.599
	c-23.351,5.572-40.458,24.844-43.3,28.211c-1.575,1.768-2.532,4.098-2.532,6.652c0,0.295,0.013,0.588,0.038,0.877
	c0.185,2.17,1.063,4.142,2.412,5.695c2.671,3.177,19.826,22.66,43.375,28.292c-12.574,20.451-11.041,46.166-10.669,50.568
	c0.132,2.303,1.058,4.569,2.777,6.354c0.049,0.051,0.098,0.101,0.148,0.151c1.799,1.798,4.112,2.768,6.466,2.91
	c4.435,0.375,30.101,1.9,50.577-10.672c4.536,19.029,18.156,33.889,24.882,40.292v16.09c-6.292-6.842-13.93-11.853-22.798-14.812
	c-31.543-10.524-43.585-22.283-44.471-23.18c-1.825-2.018-4.456-3.294-7.392-3.294c-4.706,0-8.641,3.263-9.691,7.647l-0.037-0.009
	c-0.114,0.465-8.716,49.427,18.072,79.377c18.943,21.168,50.215,26.226,66.317,27.398V492H39.986c-5.523,0-10,4.477-10,10
	s4.477,10,10,10H502c5.523,0,10-4.477,10-10S507.523,492,502,492z M409.725,350.664c22.673-7.564,38.364-15.796,48.608-22.375
	c0.154,17.266-2.62,43.536-18.448,61.233c-18.467,20.637-51.3,25.485-67.696,26.597
	C373.256,397.833,379.243,360.834,409.725,350.664z M284.117,389.524c-15.829-17.699-18.604-43.969-18.449-61.235
	c10.244,6.579,25.935,14.811,48.608,22.375l0,0c30.482,10.17,36.47,47.169,37.536,65.456
	C335.424,415.008,302.584,410.161,284.117,389.524z M169.12,414.706c16.437-5.484,28.339-11.344,36.655-16.344
	c-0.284,13.471-3.042,31.911-14.371,44.577c-13.66,15.265-37.594,19.495-51.109,20.651
	C141.47,448.675,146.753,422.168,169.12,414.706z M68.598,442.941c-11.33-12.667-14.088-31.108-14.373-44.579
	c8.317,5,20.218,10.86,36.655,16.344l0,0c22.367,7.462,27.65,33.97,28.824,48.886C106.205,462.438,82.261,458.209,68.598,442.941z
	 M113.621,341.45c0.03-5.385-3.165-10.196-8.14-12.257c-1.641-0.679-3.354-1.01-5.054-1.01c-3.455,0-6.845,1.37-9.412,3.966
	c-9.93,10.009-25.991,12.387-35.995,12.827c0.438-9.988,2.808-26.049,12.796-35.958c0.007-0.007,0.071-0.07,0.078-0.077
	c3.83-3.787,4.973-9.448,2.911-14.424c-2.051-4.951-6.825-8.138-12.238-8.138c-0.067,0-0.135,0.001-0.202,0
	c-14.047,0-27.032-9.637-34.398-16.381c7.361-6.735,20.364-16.38,34.459-16.38c0.066,0,0.134,0.001,0.198,0
	c5.354,0,10.13-3.188,12.181-8.14c2.061-4.975,0.917-10.636-2.956-14.466c-10.009-9.93-12.387-25.991-12.827-35.995
	c9.988,0.438,26.049,2.808,35.958,12.796c0.007,0.007,0.07,0.071,0.077,0.078c3.768,3.812,9.403,4.963,14.354,2.933
	c4.977-2.04,8.199-6.842,8.207-12.18c0.001-0.04,0.001-0.079,0.001-0.119c0.057-13.42,9.146-26.58,16.379-34.583
	c7.233,8.008,16.324,21.187,16.381,34.681c0.003,5.367,3.194,10.155,8.13,12.2c4.938,2.044,10.579,0.915,14.445-2.947
	c9.531-9.45,25.265-12.328,36.038-12.872c-0.544,10.772-3.416,26.5-12.843,36.007l-0.1,0.101c-3.792,3.796-4.921,9.439-2.876,14.375
	s6.833,8.127,12.197,8.13h0.101c13.422,0.057,26.582,9.148,34.585,16.381c-8,7.232-21.152,16.323-34.542,16.379h-0.141
	c-5.366,0.003-10.155,3.194-12.2,8.13c-2.044,4.936-0.916,10.579,2.876,14.375c0.001,0.001,0.069,0.069,0.07,0.071
	c9.449,9.529,12.327,25.263,12.872,36.037c-10.772-0.544-26.5-3.416-36.007-12.843c-0.004-0.004-0.072-0.071-0.076-0.075
	c-3.818-3.807-9.492-4.924-14.455-2.846c-4.937,2.066-8.106,6.865-8.075,12.284c0.056,14.108-9.62,27.146-16.379,34.525
	C123.248,368.659,113.564,355.604,113.621,341.45z M341.224,233.353c0.033-5.603-3.291-10.608-8.467-12.752
	c-1.706-0.707-3.489-1.051-5.256-1.051c-3.595,0-7.125,1.427-9.8,4.133c-12.578,12.678-33.177,15.191-44.899,15.516
	c0.328-11.712,2.85-32.333,15.568-44.951c3.985-3.938,5.174-9.828,3.03-15.004c-2.133-5.15-7.1-8.466-12.741-8.466
	c-0.08,0-0.154,0-0.232,0c-17.792,0-34.073-12.74-42.571-20.777c8.493-8.028,24.792-20.777,42.643-20.777c0.049,0,0.099,0,0.148,0
	c5.602,0.005,10.608-3.291,12.752-8.467c2.145-5.176,0.955-11.066-3.082-15.057c-12.676-12.576-15.19-33.178-15.516-44.901
	c11.708,0.324,32.309,2.829,44.874,15.493c0.004,0.004,0.073,0.074,0.077,0.078c3.919,3.965,9.779,5.162,14.928,3.053
	c5.18-2.123,8.533-7.121,8.543-12.751v-0.063c0.075-17.737,12.793-34.13,20.777-42.679c7.985,8.546,20.701,24.93,20.776,42.636
	v0.164c0.003,5.584,3.323,10.567,8.457,12.693c5.134,2.127,11.004,0.95,14.955-2.996l0.086-0.086
	c12.037-11.936,32.116-15.164,44.959-15.576c-0.412,12.842-3.635,32.916-15.546,44.928l-0.116,0.117
	c-3.946,3.951-5.123,9.82-2.996,14.955s7.109,8.454,12.699,8.457h0.116c17.737,0.075,34.13,12.793,42.679,20.777
	c-8.546,7.985-24.93,20.701-42.636,20.776h-0.163c-5.584,0.002-10.567,3.322-12.694,8.456s-0.951,11.004,2.996,14.955l0.086,0.086
	c11.935,12.037,15.164,32.116,15.576,44.959c-12.842-0.412-32.916-3.635-44.928-15.546l-0.087-0.086
	c-3.976-3.962-9.88-5.125-15.044-2.963c-5.133,2.149-8.429,7.14-8.396,12.788c0.071,17.848-12.716,34.193-20.777,42.717
	C353.95,267.625,341.153,251.257,341.224,233.353z"/>
<g>
</g>
<g>
</g>
<g>
</g>
<g>
</g>
<g>
</g>
<g>
</g>
<g>
</g>
<g>
</g>
<g>
</g>
<g>
</g>
<g>
</g>
<g>
</g>
<g>
</g>
<g>
</g>
<g>
</g>
</svg>
